<svg id="圖層_1" data-name="圖層 1" xmlns="http://www.w3.org/2000/svg" viewBox="0 0 381.31 403.61">
<title>icon</title>
<defs>
   <linearGradient id="a1">
     <stop offset="5%" stop-color="#feada6" />
     <stop offset="95%" stop-color="#f5efef" />
   </linearGradient>
</defs>
<path fill="url(#a1)" d="M409.37,398.16c-2.8-31.46-9.81-61.79-24.92-89.83-1.47-2.73-1.08-4.76.31-7.35a138.78,138.78,0,0,0,7.95-16.63c9.08-24.14,11.26-49.13,9-74.7-3.55-40.13-15.73-77.52-35.62-112.39C347.69,65,322.34,38.72,294.16,15a39.17,39.17,0,0,0-4.68-3.73c-3.79-2.3-7.55-.11-7.42,4.34.07,2.48.6,5,.87,7.43.91,8.61,1.78,17.22,2.71,25.82.36,3.28-1,3.81-3.74,2.59-.76-.34-1.55-.61-2.33-.89-27.91-10-56.64-13.7-86-10-41,5.23-77,21.81-106.93,50.61-38.29,36.87-57.21,82.24-58.24,129.5.17,43.38,9.89,78.43,31.29,109.36,41.15,59.46,98.54,86.91,170.7,83.6,19.88-.91,39.32-4.67,58.64-9.19,20.84-4.88,41.85-8,63.37-6.34,15.71,1.21,30.83,5.17,46,9C409.33,410,410.36,409.24,409.37,398.16ZM295.5,119.49c2.68-1.88,3.82-4.06,4.58-7.21,4.69-19.62,4.91-39.55,4.6-59.53a39.66,39.66,0,0,1,.45-4c5.6,6.06,10.68,11.22,15.38,16.7a261.06,261.06,0,0,1,32.56,47.75c13.26,25,22.89,51.18,27.75,79.2a215.39,215.39,0,0,1,2.63,46.24c-.64,14.76-3.3,29.37-9.66,43-1.87,4-2.24,4.09-4.66.65a167.57,167.57,0,0,0-29.85-32.07,10.39,10.39,0,0,1-3.12-5.78c-3-17.18-8.25-33.34-21.12-45.89-3.54-3.45-7.82-6.13-11.77-9.15a25.23,25.23,0,0,0-5.43-3.35c.61,1.26,1,2.76,1.88,3.76,10.59,11.65,14.52,25.95,16.47,41a16.23,16.23,0,0,1-.39,3.77,19.46,19.46,0,0,1-3.6-1.05c-18.9-9.69-39-13.8-60.19-14-17.82-.19-35.67-.55-53.42-1.88-18.29-1.37-36.37-4.44-52.9-13.24a60.72,60.72,0,0,1-20.55-17.13c-2.3-3.08-2-3.5,1.73-4.3,32.35-6.86,64.57-14.17,95.62-25.85C248.28,147.42,272.89,135.42,295.5,119.49ZM87.84,336.3a167.86,167.86,0,0,1-37.69-78.21c-2.66-13.79-4.4-27.71-3-41.66,2.28-23.43,7.8-46,19-67.1a170.81,170.81,0,0,1,58-64.07,162.52,162.52,0,0,1,64.68-25,173.81,173.81,0,0,1,35.79-2,162,162,0,0,1,57.9,13.48c2.07.92,3.16,2.19,2.9,4.59-.91,8.57-1.51,17.18-2.77,25.69a9.4,9.4,0,0,1-4.16,5.78c-10,6-20.12,11.71-30.39,17.19-24.09,12.85-50.08,20.71-76.17,28.12-12.93,3.67-26.21,6.17-39.37,9-9.89,2.1-19.87,3.81-29.8,5.73-4.37.84-6.39,4.1-4.63,8.1,6.63,15.07,14.93,28.89,28.5,39a86.44,86.44,0,0,0,31.6,14.43,277.19,277.19,0,0,0,42.64,7.08c4.1.33,8.21.54,12.33.69l7.06,7.83a136.87,136.87,0,0,0-36.71,19.37c-3,2.21-3.39,13.34.89,14.55,14.5,4.1,26.25,13,36.9,23.16a411.83,411.83,0,0,0-62,8.59c-4.68,1-3.56,11.73-.89,14.17A99.92,99.92,0,0,1,178.47,350a33.06,33.06,0,0,0-9.77.95,78,78,0,0,1-20.09,2.38c-4.78-.08-3.18,12.23-.89,14.17a153.61,153.61,0,0,1,20.91,21.41C137.18,379,109.78,362.13,87.84,336.3ZM384.93,385a223.87,223.87,0,0,0-56.44-5.69c-27,.52-53.91-1-80.34-7.21-16.85-3.94-32.7-10.27-46.93-20.32-1.06-.75-2.17-1.43-3.26-2.14l-.6.81a119.54,119.54,0,0,0,65.09,39.93l-.25,1.3c-4.29.73-8.56,1.64-12.88,2.15-23.08,2.74-46.28,4-69-1.65.06-2.25-.28-4.44-1.07-5.61A165.73,165.73,0,0,0,164,367.28c1.34-.24,2.68-.51,4-.83,6.7-1.6,11.93-2,18.68-.28,4.95,1.25,4.17-8.8,3.24-11.32a112.51,112.51,0,0,0-17.8-31.56,411.85,411.85,0,0,1,64.15-6.85c5-.14,2.91-12,.89-14.17-11.25-12-23.16-24.38-37.66-32.25a131.49,131.49,0,0,1,32.33-13.27c4.85-1.27,3.35-11.43.89-14.17L228,237.32c7.4,0,14.81-.08,22.2-.11A118.4,118.4,0,0,1,320,259a13.4,13.4,0,0,1,1.52,1.82c-20.3-.78-39.9-1.49-59.45,2.23,5.21.86,10.45,1.62,15.64,2.59,20.29,3.81,39.71,10.09,57,21.58,22.72,15.06,38.58,35.58,46.8,61.6,3.3,10.43,5.41,21.24,7.9,31.92C390.53,385.23,389.48,386.12,384.93,385Z" transform="translate(-28.35 -10.31)"/>
</svg>