<svg xmlns="http://www.w3.org/2000/svg" width="143.64mm" height="107.36mm" viewBox="0 0 407.18 304.34" class="" style=""><defs><style>.a,.b{fill:none;stroke:#fff;stroke-linecap:round;stroke-linejoin:round;}.a{stroke-width:2px;}.b{stroke-width:3px;}</style></defs><title>sign</title><path class="a zsAAkgcf_0" d="M58.65,36a736.08,736.08,0,0,0-2,102" transform="translate(-54.71 -35.03)"></path><path class="a zsAAkgcf_1" d="M64.36,97.27l51-5.28" transform="translate(-54.71 -35.03)"></path><path class="a zsAAkgcf_2" d="M124.9,40l7,98" transform="translate(-54.71 -35.03)"></path><path class="a zsAAkgcf_3" d="M159.19,97l.8,43" transform="translate(-54.71 -35.03)"></path><path class="a zsAAkgcf_4" d="M156.23,76.68a18.76,18.76,0,0,1,11.23-.09" transform="translate(-54.71 -35.03)"></path><path class="a zsAAkgcf_5" d="M192.33,139a53.58,53.58,0,0,1-8,18" transform="translate(-54.71 -35.03)"></path><path class="b zsAAkgcf_6" d="M135.9,193.67q-20.83,17.72-42.71,34.14" transform="translate(-54.71 -35.03)"></path><path class="b zsAAkgcf_7" d="M75.33,269c7.85-5.09,17.2-7.22,26.36-9.1q38-7.79,76.66-11.8" transform="translate(-54.71 -35.03)"></path><path class="b zsAAkgcf_8" d="M124.07,219l3.28,70" transform="translate(-54.71 -35.03)"></path><path class="b zsAAkgcf_9" d="M235.52,199.15a228.57,228.57,0,0,1-30.24,30.79" transform="translate(-54.71 -35.03)"></path><path class="b zsAAkgcf_10" d="M193.31,247.93a300.44,300.44,0,0,1,46-10.8" transform="translate(-54.71 -35.03)"></path><path class="b zsAAkgcf_11" d="M219.94,217a458.62,458.62,0,0,0,12.34,65" transform="translate(-54.71 -35.03)"></path><path class="b zsAAkgcf_12" d="M220.91,250.14a54.42,54.42,0,0,1-24.74,33.59" transform="translate(-54.71 -35.03)"></path><path class="b zsAAkgcf_13" d="M224.16,261.36,242.36,270" transform="translate(-54.71 -35.03)"></path><path class="b zsAAkgcf_14" d="M246.27,227a18.8,18.8,0,0,0,17.06,10.84" transform="translate(-54.71 -35.03)"></path><path class="b zsAAkgcf_15" d="M282.35,225a37,37,0,0,1-9,12" transform="translate(-54.71 -35.03)"></path><path class="b zsAAkgcf_16" d="M266.16,208A218.12,218.12,0,0,1,253,274.23" transform="translate(-54.71 -35.03)"></path><path class="b zsAAkgcf_17" d="M261.67,245.49a231.25,231.25,0,0,0,30.92,34.22" transform="translate(-54.71 -35.03)"></path><path class="a zsAAkgcf_18" d="M62.58,203.15a95.23,95.23,0,0,1-2-25.51,108.63,108.63,0,0,1,20.72,11.44" transform="translate(-54.71 -35.03)"></path><path class="a zsAAkgcf_19" d="M150.93,185.41a81,81,0,0,1,14.47-17.78c3.77,10.16,7.74,20.81,9.35,31.53,0,0-.88,1.54-1.48,1.78-.94.37-.39.52-1.52-.16" transform="translate(-54.71 -35.03)"></path><path class="a zsAAkgcf_20" d="M296.22,270.16a32.4,32.4,0,0,1,13.63,18.1,9.24,9.24,0,0,1,.43,4.49c-.72,3.33-4.27,5.14-7.49,6.25a69,69,0,0,1-26.93,3.56c-4.16-.28-8.33-.94-12.46-.38-11,1.49-19.65,12.76-18.27,23.76" transform="translate(-54.71 -35.03)"></path><path class="a zsAAkgcf_21" d="M246.37,327.77c4.21-6.78,14-7.71,21.54-5s13.81,8,21,11.38c11.56,5.49,25.62,5.79,37.12.16s20-17.28,21.2-30a27.24,27.24,0,0,0-1.05-11c-3.09-9.44-12.17-15.68-21.42-19.29A73.33,73.33,0,0,0,294.33,269" transform="translate(-54.71 -35.03)"></path><path class="a zsAAkgcf_22" d="M286.44,305.16l-11.72,7.9,18.76-1a89.09,89.09,0,0,0-12,9.43l14.6,6.21a8.9,8.9,0,0,1-4.67,5.44" transform="translate(-54.71 -35.03)"></path><path class="a zsAAkgcf_23" d="M351.33,238.48A90.47,90.47,0,0,1,377,242a101.72,101.72,0,0,0-14.27,18.81c-1.6,2.72-3.12,5.87-2.3,8.91a10.57,10.57,0,0,0,3.05,4.58,31.25,31.25,0,0,0,12.62,7.52" transform="translate(-54.71 -35.03)"></path><path class="a zsAAkgcf_24" d="M382.41,247l1.57,7.09" transform="translate(-54.71 -35.03)"></path><path class="a zsAAkgcf_25" d="M389.17,246l1.14,5" transform="translate(-54.71 -35.03)"></path><path class="a zsAAkgcf_26" d="M405.34,243.45a205.68,205.68,0,0,0,28.09-1.76" transform="translate(-54.71 -35.03)"></path><path class="a zsAAkgcf_27" d="M425.11,225c.81,12.47,1.53,25.47-3.36,37a10.65,10.65,0,0,1-3.33,4.75c-3.06,2.15-8,1.3-9.21-2.23s1.58-8.58,5.31-8.83c4.89-.32,8.09,4.87,10.13,9.31,1.8,3.92,3.5,8.87.79,12.22" transform="translate(-54.71 -35.03)"></path><path class="a zsAAkgcf_28" d="M460.89,257.88A57.32,57.32,0,0,1,454.35,273" transform="translate(-54.71 -35.03)"></path><path class="a zsAAkgcf_29" d="M450.39,280.83l3,1.06" transform="translate(-54.71 -35.03)"></path><style data-made-with="vivus-instant">.zsAAkgcf_0{stroke-dasharray:103 105;stroke-dashoffset:104;animation:zsAAkgcf_draw 183ms ease-in-out 0ms forwards;}.zsAAkgcf_1{stroke-dasharray:52 54;stroke-dashoffset:53;animation:zsAAkgcf_draw 93ms ease-in-out 183ms forwards;}.zsAAkgcf_2{stroke-dasharray:99 101;stroke-dashoffset:100;animation:zsAAkgcf_draw 176ms ease-in-out 277ms forwards;}.zsAAkgcf_3{stroke-dasharray:44 46;stroke-dashoffset:45;animation:zsAAkgcf_draw 79ms ease-in-out 454ms forwards;}.zsAAkgcf_4{stroke-dasharray:12 14;stroke-dashoffset:13;animation:zsAAkgcf_draw 22ms ease-in-out 533ms forwards;}.zsAAkgcf_5{stroke-dasharray:20 22;stroke-dashoffset:21;animation:zsAAkgcf_draw 37ms ease-in-out 556ms forwards;}.zsAAkgcf_6{stroke-dasharray:55 57;stroke-dashoffset:56;animation:zsAAkgcf_draw 98ms ease-in-out 593ms forwards;}.zsAAkgcf_7{stroke-dasharray:106 108;stroke-dashoffset:107;animation:zsAAkgcf_draw 189ms ease-in-out 692ms forwards;}.zsAAkgcf_8{stroke-dasharray:71 73;stroke-dashoffset:72;animation:zsAAkgcf_draw 127ms ease-in-out 882ms forwards;}.zsAAkgcf_9{stroke-dasharray:44 46;stroke-dashoffset:45;animation:zsAAkgcf_draw 79ms ease-in-out 1009ms forwards;}.zsAAkgcf_10{stroke-dasharray:48 50;stroke-dashoffset:49;animation:zsAAkgcf_draw 86ms ease-in-out 1088ms forwards;}.zsAAkgcf_11{stroke-dasharray:67 69;stroke-dashoffset:68;animation:zsAAkgcf_draw 120ms ease-in-out 1175ms forwards;}.zsAAkgcf_12{stroke-dasharray:43 45;stroke-dashoffset:44;animation:zsAAkgcf_draw 77ms ease-in-out 1295ms forwards;}.zsAAkgcf_13{stroke-dasharray:21 23;stroke-dashoffset:22;animation:zsAAkgcf_draw 38ms ease-in-out 1373ms forwards;}.zsAAkgcf_14{stroke-dasharray:22 24;stroke-dashoffset:23;animation:zsAAkgcf_draw 40ms ease-in-out 1412ms forwards;}.zsAAkgcf_15{stroke-dasharray:16 18;stroke-dashoffset:17;animation:zsAAkgcf_draw 30ms ease-in-out 1453ms forwards;}.zsAAkgcf_16{stroke-dasharray:68 70;stroke-dashoffset:69;animation:zsAAkgcf_draw 121ms ease-in-out 1483ms forwards;}.zsAAkgcf_17{stroke-dasharray:47 49;stroke-dashoffset:48;animation:zsAAkgcf_draw 84ms ease-in-out 1605ms forwards;}.zsAAkgcf_18{stroke-dasharray:50 52;stroke-dashoffset:51;animation:zsAAkgcf_draw 90ms ease-in-out 1690ms forwards;}.zsAAkgcf_19{stroke-dasharray:61 63;stroke-dashoffset:62;animation:zsAAkgcf_draw 109ms ease-in-out 1780ms forwards;}.zsAAkgcf_20{stroke-dasharray:111 113;stroke-dashoffset:112;animation:zsAAkgcf_draw 197ms ease-in-out 1889ms forwards;}.zsAAkgcf_21{stroke-dasharray:197 199;stroke-dashoffset:198;animation:zsAAkgcf_draw 350ms ease-in-out 2087ms forwards;}.zsAAkgcf_22{stroke-dasharray:72 74;stroke-dashoffset:73;animation:zsAAkgcf_draw 129ms ease-in-out 2437ms forwards;}.zsAAkgcf_23{stroke-dasharray:80 82;stroke-dashoffset:81;animation:zsAAkgcf_draw 143ms ease-in-out 2566ms forwards;}.zsAAkgcf_24{stroke-dasharray:8 10;stroke-dashoffset:9;animation:zsAAkgcf_draw 15ms ease-in-out 2710ms forwards;}.zsAAkgcf_25{stroke-dasharray:6 8;stroke-dashoffset:7;animation:zsAAkgcf_draw 12ms ease-in-out 2725ms forwards;}.zsAAkgcf_26{stroke-dasharray:29 31;stroke-dashoffset:30;animation:zsAAkgcf_draw 53ms ease-in-out 2738ms forwards;}.zsAAkgcf_27{stroke-dasharray:94 96;stroke-dashoffset:95;animation:zsAAkgcf_draw 167ms ease-in-out 2791ms forwards;}.zsAAkgcf_28{stroke-dasharray:17 19;stroke-dashoffset:18;animation:zsAAkgcf_draw 31ms ease-in-out 2959ms forwards;}.zsAAkgcf_29{stroke-dasharray:4 6;stroke-dashoffset:5;animation:zsAAkgcf_draw 8ms ease-in-out 2991ms forwards;}@keyframes zsAAkgcf_draw{100%{stroke-dashoffset:0;}}@keyframes zsAAkgcf_fade{0%{stroke-opacity:1;}94.44444444444444%{stroke-opacity:1;}100%{stroke-opacity:0;}}</style></svg>