<svg id="cool" data-name="cool" xmlns="http://www.w3.org/2000/svg" viewBox="0 0 737.08 200.42" style=""><defs>
<mask id="line">
<g filter="url(#blur)">
<path class="cls-2 pgzVaNGc_0" d="M121.6,92.9c0-2.45-3.3-3.75-5.55-2.77s-3.57,3.29-4.72,5.45A829.32,829.32,0,0,0,60.25,211.64" transform="translate(-52.75 -18.72)">
</path><path class="cls-2 pgzVaNGc_1" d="M156.5,76.91a1018.59,1018.59,0,0,1,53.8,112.77" transform="translate(-52.75 -18.72)">
</path><path class="cls-2 pgzVaNGc_2" d="M279,54.75l72.73-4.87" transform="translate(-52.75 -18.72)">
</path><path class="cls-2 pgzVaNGc_3" d="M246.57,101a22.33,22.33,0,0,0,9.36,9.64" transform="translate(-52.75 -18.72)">
</path><path class="cls-2 pgzVaNGc_4" d="M245.45,86.51q62-6.47,124.16-11.12c5.12-.38,11.13-.39,14.29,3.66,2.47,3.16,2.15,7.83.28,11.38s-5,6.23-8.06,8.83" transform="translate(-52.75 -18.72)">
</path><path class="cls-2 pgzVaNGc_5" d="M302.69,67.82a135,135,0,0,0,6.3,40.35" transform="translate(-52.75 -18.72)">
</path><path class="cls-2 pgzVaNGc_6" d="M275,97.14a18.49,18.49,0,0,1,11.11-.19" transform="translate(-52.75 -18.72)">
</path><path class="cls-2 pgzVaNGc_7" d="M270.29,113.9q18-5.25,35.56-12" transform="translate(-52.75 -18.72)">
</path><path class="cls-2 pgzVaNGc_8" d="M345.39,92.35a48,48,0,0,0-12.66,4" transform="translate(-52.75 -18.72)">
</path><path class="cls-2 pgzVaNGc_9" d="M342.23,111.34l-19.78,4" transform="translate(-52.75 -18.72)">
</path><path class="cls-2 pgzVaNGc_10" d="M265.48,141.36a558.27,558.27,0,0,1,68.85-12.59" transform="translate(-52.75 -18.72)">
</path><path class="cls-2 pgzVaNGc_11" d="M246.56,167.78l89.37-20.35a404.69,404.69,0,0,0-36.16,20.46c-5.16,3.28-10.37,6.8-13.92,11.79-1.25,1.75-2.28,4.08-1.27,6,1.15,2.17,4.19,2.37,6.61,1.91,12.59-2.4,22.62-14.46,35.42-13.81,11.14.56,19.38,10.55,29.88,14.33" transform="translate(-52.75 -18.72)">
</path><path class="cls-2 pgzVaNGc_12" d="M511.36,39.62a490.17,490.17,0,0,0-77.67,44.69" transform="translate(-52.75 -18.72)">
</path><path class="cls-2 pgzVaNGc_13" d="M407.59,132.53l138-23.21" transform="translate(-52.75 -18.72)">
</path><path class="cls-2 pgzVaNGc_14" d="M474.93,68.21a810.17,810.17,0,0,1-4.53,131.32" transform="translate(-52.75 -18.72)">
</path><path class="cls-2 pgzVaNGc_15" d="M613.64,50.24A268.15,268.15,0,0,0,591,71.61" transform="translate(-52.75 -18.72)">
</path><path class="cls-2 pgzVaNGc_16" d="M584.34,95.43a325.7,325.7,0,0,0,52-5.92" transform="translate(-52.75 -18.72)">
</path><path class="cls-2 pgzVaNGc_17" d="M603.44,62.23q6,69.57,9.24,139.36" transform="translate(-52.75 -18.72)">
</path><path class="cls-2 pgzVaNGc_18" d="M604,111.4a274,274,0,0,0-26.89,56.91" transform="translate(-52.75 -18.72)">
</path><path class="cls-2 pgzVaNGc_19" d="M615.61,132.32l24,24" transform="translate(-52.75 -18.72)">
</path><path class="cls-2 pgzVaNGc_20" d="M652,68.77c7.66,16.66,15.59,33.72,28.73,46.51" transform="translate(-52.75 -18.72)">
</path><path class="cls-2 pgzVaNGc_21" d="M729.37,70.06a438.65,438.65,0,0,1-28.93,35.65" transform="translate(-52.75 -18.72)">
</path><path class="cls-2 pgzVaNGc_22" d="M687.13,50.24a425.35,425.35,0,0,1-28.61,130.37" transform="translate(-52.75 -18.72)">
</path><path class="cls-2 pgzVaNGc_23" d="M682.39,132.87a171.2,171.2,0,0,0,58.7,37.82" transform="translate(-52.75 -18.72)">
</path><path class="cls-2 pgzVaNGc_24" d="M753,38.28a46.27,46.27,0,0,1,14.62-12.06" transform="translate(-52.75 -18.72)">
</path><path class="cls-2 pgzVaNGc_25" d="M756.94,54.19A50.35,50.35,0,0,1,777,47" transform="translate(-52.75 -18.72)">
</path><path class="cls-2 pgzVaNGc_26" d="M761.66,70.41a2.51,2.51,0,0,0,.4,3.1,6.7,6.7,0,0,0,3,1.58,51.68,51.68,0,0,0,17.3,2.39" transform="translate(-52.75 -18.72)">
</path></g></mask>
<linearGradient id="a1" x1="0%" y1="0%" x2="0%" y2="100%">
     <stop offset="50%" stop-color="rgb(83,170,255)" />
     <stop offset="60%" stop-color="rgb(171,204,171)" />
     <stop offset="75%" stop-color="rgb(255,221,75)" />
</linearGradient>
<filter id="blur" x="-15%" y="-15%" width="150%" height="150%">
      <feGaussianBlur in="SourceGraphic" stdDeviation="2"/>
</filter>
<style>.cls-2{fill:none;stroke:white;stroke-linecap:round;stroke-linejoin:round;stroke-width:15px;transform: translate(-50.75px,-18.72px);}</style>
</defs><title>akicool</title>
<style data-made-with="vivus-instant">.pgzVaNGc_0{stroke-dasharray:142 144;stroke-dashoffset:143;animation-delay: 2.5s;animation:pgzVaNGc_draw 210ms linear 0ms forwards;}.pgzVaNGc_1{stroke-dasharray:126 128;stroke-dashoffset:127;animation-delay: 2.5s;animation:pgzVaNGc_draw 186ms linear 210ms forwards;}.pgzVaNGc_2{stroke-dasharray:73 75;stroke-dashoffset:74;animation-delay: 2.5s;animation:pgzVaNGc_draw 108ms linear 396ms forwards;}.pgzVaNGc_3{stroke-dasharray:14 16;stroke-dashoffset:15;animation-delay: 2.5s;animation:pgzVaNGc_draw 22ms linear 505ms forwards;}.pgzVaNGc_4{stroke-dasharray:165 167;stroke-dashoffset:166;animation-delay: 2.5s;animation:pgzVaNGc_draw 243ms linear 527ms forwards;}.pgzVaNGc_5{stroke-dasharray:41 43;stroke-dashoffset:42;animation-delay: 2.5s;animation:pgzVaNGc_draw 61ms linear 771ms forwards;}.pgzVaNGc_6{stroke-dasharray:12 14;stroke-dashoffset:13;animation-delay: 2.5s;animation:pgzVaNGc_draw 19ms linear 833ms forwards;}.pgzVaNGc_7{stroke-dasharray:38 40;stroke-dashoffset:39;animation-delay: 2.5s;animation:pgzVaNGc_draw 57ms linear 852ms forwards;}.pgzVaNGc_8{stroke-dasharray:14 16;stroke-dashoffset:15;animation-delay: 2.5s;animation:pgzVaNGc_draw 22ms linear 909ms forwards;}.pgzVaNGc_9{stroke-dasharray:21 23;stroke-dashoffset:22;animation-delay: 2.5s;animation:pgzVaNGc_draw 32ms linear 931ms forwards;}.pgzVaNGc_10{stroke-dasharray:71 73;stroke-dashoffset:72;animation-delay: 2.5s;animation:pgzVaNGc_draw 105ms linear 964ms forwards;}.pgzVaNGc_11{stroke-dasharray:238 240;stroke-dashoffset:239;animation-delay: 2.5s;animation:pgzVaNGc_draw 351ms linear 1070ms forwards;}.pgzVaNGc_12{stroke-dasharray:90 92;stroke-dashoffset:91;animation-delay: 2.5s;animation:pgzVaNGc_draw 133ms linear 1421ms forwards;}.pgzVaNGc_13{stroke-dasharray:140 142;stroke-dashoffset:141;animation-delay: 2.5s;animation:pgzVaNGc_draw 207ms linear 1555ms forwards;}.pgzVaNGc_14{stroke-dasharray:132 134;stroke-dashoffset:133;animation-delay: 2.5s;animation:pgzVaNGc_draw 195ms linear 1762ms forwards;}.pgzVaNGc_15{stroke-dasharray:32 34;stroke-dashoffset:33;animation-delay: 2.5s;animation:pgzVaNGc_draw 48ms linear 1957ms forwards;}.pgzVaNGc_16{stroke-dasharray:53 55;stroke-dashoffset:54;animation-delay: 2.5s;animation:pgzVaNGc_draw 79ms linear 2006ms forwards;}.pgzVaNGc_17{stroke-dasharray:140 142;stroke-dashoffset:141;animation-delay: 2.5s;animation:pgzVaNGc_draw 207ms linear 2085ms forwards;}.pgzVaNGc_18{stroke-dasharray:64 66;stroke-dashoffset:65;animation-delay: 2.5s;animation:pgzVaNGc_draw 95ms linear 2292ms forwards;}.pgzVaNGc_19{stroke-dasharray:34 36;stroke-dashoffset:35;animation-delay: 2.5s;animation:pgzVaNGc_draw 51ms linear 2388ms forwards;}.pgzVaNGc_20{stroke-dasharray:55 57;stroke-dashoffset:56;animation-delay: 2.5s;animation:pgzVaNGc_draw 82ms linear 2439ms forwards;}.pgzVaNGc_21{stroke-dasharray:46 48;stroke-dashoffset:47;animation-delay: 2.5s;animation:pgzVaNGc_draw 69ms linear 2522ms forwards;}.pgzVaNGc_22{stroke-dasharray:135 137;stroke-dashoffset:136;animation-delay: 2.5s;animation:pgzVaNGc_draw 199ms linear 2591ms forwards;}.pgzVaNGc_23{stroke-dasharray:71 73;stroke-dashoffset:72;animation-delay: 2.5s;animation:pgzVaNGc_draw 105ms linear 2791ms forwards;}.pgzVaNGc_24{stroke-dasharray:20 22;stroke-dashoffset:21;animation-delay: 2.5s;animation:pgzVaNGc_draw 30ms linear 2897ms forwards;}.pgzVaNGc_25{stroke-dasharray:22 24;stroke-dashoffset:23;animation-delay: 2.5s;animation:pgzVaNGc_draw 33ms linear 2927ms forwards;}.pgzVaNGc_26{stroke-dasharray:25 27;stroke-dashoffset:26;animation-delay: 2.5s;animation:pgzVaNGc_draw 38ms linear 2961ms forwards;}@keyframes pgzVaNGc_draw{100%{stroke-dashoffset:0;}}@keyframes pgzVaNGc_fade{0%{stroke-opacity:1;}94.44444444444444%{stroke-opacity:1;}100%{stroke-opacity:0;}}</style>
<rect mask="url(#line)" x="0" y="0" height="200.42" width="737.08" fill="url(#a1)"></rect>
<style>.cls-1{fill:none;stroke:white;stroke-linecap:round;stroke-linejoin:round;stroke-width:5px;transform: translate(-51px, -19px);stroke-opacity:0.9;}</style><path class="cls-1 tUxOUxEh_0" d="M121.6,92.9c0-2.45-3.3-3.75-5.55-2.77s-3.57,3.29-4.72,5.45A829.32,829.32,0,0,0,60.25,211.64" transform="translate(-57.75 -23.72)"></path><path class="cls-1 tUxOUxEh_1" d="M156.5,76.91a1018.59,1018.59,0,0,1,53.8,112.77" transform="translate(-57.75 -23.72)"></path><path class="cls-1 tUxOUxEh_2" d="M279,54.75l72.73-4.87" transform="translate(-57.75 -23.72)"></path><path class="cls-1 tUxOUxEh_3" d="M246.57,101a22.33,22.33,0,0,0,9.36,9.64" transform="translate(-57.75 -23.72)"></path><path class="cls-1 tUxOUxEh_4" d="M245.45,86.51q62-6.47,124.16-11.12c5.12-.38,11.13-.39,14.29,3.66,2.47,3.16,2.15,7.83.28,11.38s-5,6.23-8.06,8.83" transform="translate(-57.75 -23.72)"></path><path class="cls-1 tUxOUxEh_5" d="M302.69,67.82a135,135,0,0,0,6.3,40.35" transform="translate(-57.75 -23.72)"></path><path class="cls-1 tUxOUxEh_6" d="M275,97.14a18.49,18.49,0,0,1,11.11-.19" transform="translate(-57.75 -23.72)"></path><path class="cls-1 tUxOUxEh_7" d="M270.29,113.9q18-5.25,35.56-12" transform="translate(-57.75 -23.72)"></path><path class="cls-1 tUxOUxEh_8" d="M345.39,92.35a48,48,0,0,0-12.66,4" transform="translate(-57.75 -23.72)"></path><path class="cls-1 tUxOUxEh_9" d="M342.23,111.34l-19.78,4" transform="translate(-57.75 -23.72)"></path><path class="cls-1 tUxOUxEh_10" d="M265.48,141.36a558.27,558.27,0,0,1,68.85-12.59" transform="translate(-57.75 -23.72)"></path><path class="cls-1 tUxOUxEh_11" d="M246.56,167.78l89.37-20.35a404.69,404.69,0,0,0-36.16,20.46c-5.16,3.28-10.37,6.8-13.92,11.79-1.25,1.75-2.28,4.08-1.27,6,1.15,2.17,4.19,2.37,6.61,1.91,12.59-2.4,22.62-14.46,35.42-13.81,11.14.56,19.38,10.55,29.88,14.33" transform="translate(-57.75 -23.72)"></path><path class="cls-1 tUxOUxEh_12" d="M511.36,39.62a490.17,490.17,0,0,0-77.67,44.69" transform="translate(-57.75 -23.72)"></path><path class="cls-1 tUxOUxEh_13" d="M407.59,132.53l138-23.21" transform="translate(-57.75 -23.72)"></path><path class="cls-1 tUxOUxEh_14" d="M474.93,68.21a810.17,810.17,0,0,1-4.53,131.32" transform="translate(-57.75 -23.72)"></path><path class="cls-1 tUxOUxEh_15" d="M613.64,50.24A268.15,268.15,0,0,0,591,71.61" transform="translate(-57.75 -23.72)"></path><path class="cls-1 tUxOUxEh_16" d="M584.34,95.43a325.7,325.7,0,0,0,52-5.92" transform="translate(-57.75 -23.72)"></path><path class="cls-1 tUxOUxEh_17" d="M603.44,62.23q6,69.57,9.24,139.36" transform="translate(-57.75 -23.72)"></path><path class="cls-1 tUxOUxEh_18" d="M604,111.4a274,274,0,0,0-26.89,56.91" transform="translate(-57.75 -23.72)"></path><path class="cls-1 tUxOUxEh_19" d="M615.61,132.32l24,24" transform="translate(-57.75 -23.72)"></path><path class="cls-1 tUxOUxEh_20" d="M652,68.77c7.66,16.66,15.59,33.72,28.73,46.51" transform="translate(-57.75 -23.72)"></path><path class="cls-1 tUxOUxEh_21" d="M729.37,70.06a438.65,438.65,0,0,1-28.93,35.65" transform="translate(-57.75 -23.72)"></path><path class="cls-1 tUxOUxEh_22" d="M687.13,50.24a425.35,425.35,0,0,1-28.61,130.37" transform="translate(-57.75 -23.72)"></path><path class="cls-1 tUxOUxEh_23" d="M682.39,132.87a171.2,171.2,0,0,0,58.7,37.82" transform="translate(-57.75 -23.72)"></path><path class="cls-1 tUxOUxEh_24" d="M753,38.28a46.27,46.27,0,0,1,14.62-12.06" transform="translate(-57.75 -23.72)"></path><path class="cls-1 tUxOUxEh_25" d="M756.94,54.19A50.35,50.35,0,0,1,777,47" transform="translate(-57.75 -23.72)"></path><path class="cls-1 tUxOUxEh_26" d="M761.66,70.41a2.51,2.51,0,0,0,.4,3.1,6.7,6.7,0,0,0,3,1.58,51.68,51.68,0,0,0,17.3,2.39" transform="translate(-57.75 -23.72)"></path><style data-made-with="vivus-instant">.tUxOUxEh_0{stroke-dasharray:142 144;stroke-dashoffset:143;animation-delay: 2.5s;animation:tUxOUxEh_draw 210ms linear 0ms forwards;}.tUxOUxEh_1{stroke-dasharray:126 128;stroke-dashoffset:127;animation-delay: 2.5s;animation:tUxOUxEh_draw 186ms linear 210ms forwards;}.tUxOUxEh_2{stroke-dasharray:73 75;stroke-dashoffset:74;animation-delay: 2.5s;animation:tUxOUxEh_draw 108ms linear 396ms forwards;}.tUxOUxEh_3{stroke-dasharray:14 16;stroke-dashoffset:15;animation-delay: 2.5s;animation:tUxOUxEh_draw 22ms linear 505ms forwards;}.tUxOUxEh_4{stroke-dasharray:165 167;stroke-dashoffset:166;animation-delay: 2.5s;animation:tUxOUxEh_draw 243ms linear 527ms forwards;}.tUxOUxEh_5{stroke-dasharray:41 43;stroke-dashoffset:42;animation-delay: 2.5s;animation:tUxOUxEh_draw 61ms linear 771ms forwards;}.tUxOUxEh_6{stroke-dasharray:12 14;stroke-dashoffset:13;animation-delay: 2.5s;animation:tUxOUxEh_draw 19ms linear 833ms forwards;}.tUxOUxEh_7{stroke-dasharray:38 40;stroke-dashoffset:39;animation-delay: 2.5s;animation:tUxOUxEh_draw 57ms linear 852ms forwards;}.tUxOUxEh_8{stroke-dasharray:14 16;stroke-dashoffset:15;animation-delay: 2.5s;animation:tUxOUxEh_draw 22ms linear 909ms forwards;}.tUxOUxEh_9{stroke-dasharray:21 23;stroke-dashoffset:22;animation-delay: 2.5s;animation:tUxOUxEh_draw 32ms linear 931ms forwards;}.tUxOUxEh_10{stroke-dasharray:71 73;stroke-dashoffset:72;animation-delay: 2.5s;animation:tUxOUxEh_draw 105ms linear 964ms forwards;}.tUxOUxEh_11{stroke-dasharray:238 240;stroke-dashoffset:239;animation-delay: 2.5s;animation:tUxOUxEh_draw 351ms linear 1070ms forwards;}.tUxOUxEh_12{stroke-dasharray:90 92;stroke-dashoffset:91;animation-delay: 2.5s;animation:tUxOUxEh_draw 133ms linear 1421ms forwards;}.tUxOUxEh_13{stroke-dasharray:140 142;stroke-dashoffset:141;animation-delay: 2.5s;animation:tUxOUxEh_draw 207ms linear 1555ms forwards;}.tUxOUxEh_14{stroke-dasharray:132 134;stroke-dashoffset:133;animation-delay: 2.5s;animation:tUxOUxEh_draw 195ms linear 1762ms forwards;}.tUxOUxEh_15{stroke-dasharray:32 34;stroke-dashoffset:33;animation-delay: 2.5s;animation:tUxOUxEh_draw 48ms linear 1957ms forwards;}.tUxOUxEh_16{stroke-dasharray:53 55;stroke-dashoffset:54;animation-delay: 2.5s;animation:tUxOUxEh_draw 79ms linear 2006ms forwards;}.tUxOUxEh_17{stroke-dasharray:140 142;stroke-dashoffset:141;animation-delay: 2.5s;animation:tUxOUxEh_draw 207ms linear 2085ms forwards;}.tUxOUxEh_18{stroke-dasharray:64 66;stroke-dashoffset:65;animation-delay: 2.5s;animation:tUxOUxEh_draw 95ms linear 2292ms forwards;}.tUxOUxEh_19{stroke-dasharray:34 36;stroke-dashoffset:35;animation-delay: 2.5s;animation:tUxOUxEh_draw 51ms linear 2388ms forwards;}.tUxOUxEh_20{stroke-dasharray:55 57;stroke-dashoffset:56;animation-delay: 2.5s;animation:tUxOUxEh_draw 82ms linear 2439ms forwards;}.tUxOUxEh_21{stroke-dasharray:46 48;stroke-dashoffset:47;animation-delay: 2.5s;animation:tUxOUxEh_draw 69ms linear 2522ms forwards;}.tUxOUxEh_22{stroke-dasharray:135 137;stroke-dashoffset:136;animation-delay: 2.5s;animation:tUxOUxEh_draw 199ms linear 2591ms forwards;}.tUxOUxEh_23{stroke-dasharray:71 73;stroke-dashoffset:72;animation-delay: 2.5s;animation:tUxOUxEh_draw 105ms linear 2791ms forwards;}.tUxOUxEh_24{stroke-dasharray:20 22;stroke-dashoffset:21;animation-delay: 2.5s;animation:tUxOUxEh_draw 30ms linear 2897ms forwards;}.tUxOUxEh_25{stroke-dasharray:22 24;stroke-dashoffset:23;animation-delay: 2.5s;animation:tUxOUxEh_draw 33ms linear 2927ms forwards;}.tUxOUxEh_26{stroke-dasharray:25 27;stroke-dashoffset:26;animation-delay: 2.5s;animation:tUxOUxEh_draw 38ms linear 2961ms forwards;}@keyframes tUxOUxEh_draw{100%{stroke-dashoffset:0;}}@keyframes tUxOUxEh_fade{0%{stroke-opacity:1;}94.44444444444444%{stroke-opacity:1;}100%{stroke-opacity:0;}}</style>
</svg>