<svg id="圖層_1" data-name="圖層 1" xmlns="http://www.w3.org/2000/svg" viewBox="0 0 727.08 190.42" style=""><defs><style>.cls-1{fill:none;stroke:black;stroke-linecap:round;stroke-linejoin:round;stroke-width:5px;}</style></defs><title>未命名-1</title><path class="cls-1 VtmYoEBV_0" d="M121.6,92.9c0-2.45-3.3-3.75-5.55-2.77s-3.57,3.29-4.72,5.45A829.32,829.32,0,0,0,60.25,211.64" transform="translate(-57.75 -23.72)"></path><path class="cls-1 VtmYoEBV_1" d="M156.5,76.91a1018.59,1018.59,0,0,1,53.8,112.77" transform="translate(-57.75 -23.72)"></path><path class="cls-1 VtmYoEBV_2" d="M279,54.75l72.73-4.87" transform="translate(-57.75 -23.72)"></path><path class="cls-1 VtmYoEBV_3" d="M246.57,101a22.33,22.33,0,0,0,9.36,9.64" transform="translate(-57.75 -23.72)"></path><path class="cls-1 VtmYoEBV_4" d="M245.45,86.51q62-6.47,124.16-11.12c5.12-.38,11.13-.39,14.29,3.66,2.47,3.16,2.15,7.83.28,11.38s-5,6.23-8.06,8.83" transform="translate(-57.75 -23.72)"></path><path class="cls-1 VtmYoEBV_5" d="M302.69,67.82a135,135,0,0,0,6.3,40.35" transform="translate(-57.75 -23.72)"></path><path class="cls-1 VtmYoEBV_6" d="M275,97.14a18.49,18.49,0,0,1,11.11-.19" transform="translate(-57.75 -23.72)"></path><path class="cls-1 VtmYoEBV_7" d="M270.29,113.9q18-5.25,35.56-12" transform="translate(-57.75 -23.72)"></path><path class="cls-1 VtmYoEBV_8" d="M345.39,92.35a48,48,0,0,0-12.66,4" transform="translate(-57.75 -23.72)"></path><path class="cls-1 VtmYoEBV_9" d="M342.23,111.34l-19.78,4" transform="translate(-57.75 -23.72)"></path><path class="cls-1 VtmYoEBV_10" d="M265.48,141.36a558.27,558.27,0,0,1,68.85-12.59" transform="translate(-57.75 -23.72)"></path><path class="cls-1 VtmYoEBV_11" d="M246.56,167.78l89.37-20.35a404.69,404.69,0,0,0-36.16,20.46c-5.16,3.28-10.37,6.8-13.92,11.79-1.25,1.75-2.28,4.08-1.27,6,1.15,2.17,4.19,2.37,6.61,1.91,12.59-2.4,22.62-14.46,35.42-13.81,11.14.56,19.38,10.55,29.88,14.33" transform="translate(-57.75 -23.72)"></path><path class="cls-1 VtmYoEBV_12" d="M511.36,39.62a490.17,490.17,0,0,0-77.67,44.69" transform="translate(-57.75 -23.72)"></path><path class="cls-1 VtmYoEBV_13" d="M407.59,132.53l138-23.21" transform="translate(-57.75 -23.72)"></path><path class="cls-1 VtmYoEBV_14" d="M474.93,68.21a810.17,810.17,0,0,1-4.53,131.32" transform="translate(-57.75 -23.72)"></path><path class="cls-1 VtmYoEBV_15" d="M613.64,50.24A268.15,268.15,0,0,0,591,71.61" transform="translate(-57.75 -23.72)"></path><path class="cls-1 VtmYoEBV_16" d="M584.34,95.43a325.7,325.7,0,0,0,52-5.92" transform="translate(-57.75 -23.72)"></path><path class="cls-1 VtmYoEBV_17" d="M603.44,62.23q6,69.57,9.24,139.36" transform="translate(-57.75 -23.72)"></path><path class="cls-1 VtmYoEBV_18" d="M604,111.4a274,274,0,0,0-26.89,56.91" transform="translate(-57.75 -23.72)"></path><path class="cls-1 VtmYoEBV_19" d="M615.61,132.32l24,24" transform="translate(-57.75 -23.72)"></path><path class="cls-1 VtmYoEBV_20" d="M652,68.77c7.66,16.66,15.59,33.72,28.73,46.51" transform="translate(-57.75 -23.72)"></path><path class="cls-1 VtmYoEBV_21" d="M729.37,70.06a438.65,438.65,0,0,1-28.93,35.65" transform="translate(-57.75 -23.72)"></path><path class="cls-1 VtmYoEBV_22" d="M687.13,50.24a425.35,425.35,0,0,1-28.61,130.37" transform="translate(-57.75 -23.72)"></path><path class="cls-1 VtmYoEBV_23" d="M682.39,132.87a171.2,171.2,0,0,0,58.7,37.82" transform="translate(-57.75 -23.72)"></path><path class="cls-1 VtmYoEBV_24" d="M753,38.28a46.27,46.27,0,0,1,14.62-12.06" transform="translate(-57.75 -23.72)"></path><path class="cls-1 VtmYoEBV_25" d="M756.94,54.19A50.35,50.35,0,0,1,777,47" transform="translate(-57.75 -23.72)"></path><path class="cls-1 VtmYoEBV_26" d="M761.66,70.41a2.51,2.51,0,0,0,.4,3.1,6.7,6.7,0,0,0,3,1.58,51.68,51.68,0,0,0,17.3,2.39" transform="translate(-57.75 -23.72)"></path><style data-made-with="vivus-instant">.VtmYoEBV_0{stroke-dasharray:142 144;stroke-dashoffset:143;animation:VtmYoEBV_draw 210ms ease-in-out 0ms forwards;}.VtmYoEBV_1{stroke-dasharray:126 128;stroke-dashoffset:127;animation:VtmYoEBV_draw 186ms ease-in-out 210ms forwards;}.VtmYoEBV_2{stroke-dasharray:73 75;stroke-dashoffset:74;animation:VtmYoEBV_draw 108ms ease-in-out 396ms forwards;}.VtmYoEBV_3{stroke-dasharray:14 16;stroke-dashoffset:15;animation:VtmYoEBV_draw 22ms ease-in-out 505ms forwards;}.VtmYoEBV_4{stroke-dasharray:165 167;stroke-dashoffset:166;animation:VtmYoEBV_draw 243ms ease-in-out 527ms forwards;}.VtmYoEBV_5{stroke-dasharray:41 43;stroke-dashoffset:42;animation:VtmYoEBV_draw 61ms ease-in-out 771ms forwards;}.VtmYoEBV_6{stroke-dasharray:12 14;stroke-dashoffset:13;animation:VtmYoEBV_draw 19ms ease-in-out 833ms forwards;}.VtmYoEBV_7{stroke-dasharray:38 40;stroke-dashoffset:39;animation:VtmYoEBV_draw 57ms ease-in-out 852ms forwards;}.VtmYoEBV_8{stroke-dasharray:14 16;stroke-dashoffset:15;animation:VtmYoEBV_draw 22ms ease-in-out 909ms forwards;}.VtmYoEBV_9{stroke-dasharray:21 23;stroke-dashoffset:22;animation:VtmYoEBV_draw 32ms ease-in-out 931ms forwards;}.VtmYoEBV_10{stroke-dasharray:71 73;stroke-dashoffset:72;animation:VtmYoEBV_draw 105ms ease-in-out 964ms forwards;}.VtmYoEBV_11{stroke-dasharray:238 240;stroke-dashoffset:239;animation:VtmYoEBV_draw 351ms ease-in-out 1070ms forwards;}.VtmYoEBV_12{stroke-dasharray:90 92;stroke-dashoffset:91;animation:VtmYoEBV_draw 133ms ease-in-out 1421ms forwards;}.VtmYoEBV_13{stroke-dasharray:140 142;stroke-dashoffset:141;animation:VtmYoEBV_draw 207ms ease-in-out 1555ms forwards;}.VtmYoEBV_14{stroke-dasharray:132 134;stroke-dashoffset:133;animation:VtmYoEBV_draw 195ms ease-in-out 1762ms forwards;}.VtmYoEBV_15{stroke-dasharray:32 34;stroke-dashoffset:33;animation:VtmYoEBV_draw 48ms ease-in-out 1957ms forwards;}.VtmYoEBV_16{stroke-dasharray:53 55;stroke-dashoffset:54;animation:VtmYoEBV_draw 79ms ease-in-out 2006ms forwards;}.VtmYoEBV_17{stroke-dasharray:140 142;stroke-dashoffset:141;animation:VtmYoEBV_draw 207ms ease-in-out 2085ms forwards;}.VtmYoEBV_18{stroke-dasharray:64 66;stroke-dashoffset:65;animation:VtmYoEBV_draw 95ms ease-in-out 2292ms forwards;}.VtmYoEBV_19{stroke-dasharray:34 36;stroke-dashoffset:35;animation:VtmYoEBV_draw 51ms ease-in-out 2388ms forwards;}.VtmYoEBV_20{stroke-dasharray:55 57;stroke-dashoffset:56;animation:VtmYoEBV_draw 82ms ease-in-out 2439ms forwards;}.VtmYoEBV_21{stroke-dasharray:46 48;stroke-dashoffset:47;animation:VtmYoEBV_draw 69ms ease-in-out 2522ms forwards;}.VtmYoEBV_22{stroke-dasharray:135 137;stroke-dashoffset:136;animation:VtmYoEBV_draw 199ms ease-in-out 2591ms forwards;}.VtmYoEBV_23{stroke-dasharray:71 73;stroke-dashoffset:72;animation:VtmYoEBV_draw 105ms ease-in-out 2791ms forwards;}.VtmYoEBV_24{stroke-dasharray:20 22;stroke-dashoffset:21;animation:VtmYoEBV_draw 30ms ease-in-out 2897ms forwards;}.VtmYoEBV_25{stroke-dasharray:22 24;stroke-dashoffset:23;animation:VtmYoEBV_draw 33ms ease-in-out 2927ms forwards;}.VtmYoEBV_26{stroke-dasharray:25 27;stroke-dashoffset:26;animation:VtmYoEBV_draw 38ms ease-in-out 2961ms forwards;}@keyframes VtmYoEBV_draw{100%{stroke-dashoffset:0;}}@keyframes VtmYoEBV_fade{0%{stroke-opacity:1;}94.44444444444444%{stroke-opacity:1;}100%{stroke-opacity:0;}}</style></svg>