<svg id="群組_1" data-name="群組 1" xmlns="http://www.w3.org/2000/svg" width="781" height="397" viewBox="0 0 781 397">
  <metadata><?xpacket begin="﻿" id="W5M0MpCehiHzreSzNTczkc9d"?>
<x:xmpmeta xmlns:x="adobe:ns:meta/" x:xmptk="Adobe XMP Core 5.6-c138 79.159824, 2016/09/14-01:09:01        ">
   <rdf:RDF xmlns:rdf="http://www.w3.org/1999/02/22-rdf-syntax-ns#">
      <rdf:Description rdf:about=""/>
   </rdf:RDF>
</x:xmpmeta>
                                                                                                    
                                                                                                    
                                                                                                    
                                                                                                    
                                                                                                    
                                                                                                    
                                                                                                    
                                                                                                    
                                                                                                    
                                                                                                    
                                                                                                    
                                                                                                    
                                                                                                    
                                                                                                    
                                                                                                    
                                                                                                    
                                                                                                    
                                                                                                    
                                                                                                    
                                                                                                    
                           
<?xpacket end="w"?></metadata>
<defs>
    <style>
      .cls-1 {
        fill-rule: evenodd;
      }
    </style>
  </defs>
  <path id="Design._Develop._Marketing_千秋設計所" data-name="Design. Develop. Marketing 千秋設計所" class="cls-1" d="M28.676,48.453V16.719h6.258a15.379,15.379,0,0,1,11.2,4.664,15.278,15.278,0,0,1,4.664,11.2,15.3,15.3,0,0,1-4.664,11.227,15.367,15.367,0,0,1-11.2,4.641H28.676ZM27.223,13.836a1.376,1.376,0,0,0-1.008.422,1.4,1.4,0,0,0-.422,1.031V49.883a1.4,1.4,0,0,0,.422,1.031,1.376,1.376,0,0,0,1.008.422h7.711a18.044,18.044,0,0,0,13.242-5.484,18.083,18.083,0,0,0,5.508-13.266,18.006,18.006,0,0,0-5.508-13.242,18.006,18.006,0,0,0-13.242-5.508H27.223Zm33.4,22.922a10.972,10.972,0,0,1,2.953-5.766,10.185,10.185,0,0,1,14.438,0,10.733,10.733,0,0,1,2.93,5.766H60.621Zm16.734,9.258a9.767,9.767,0,0,1-6.562,2.414,9.84,9.84,0,0,1-7.219-3,10.972,10.972,0,0,1-2.953-5.766H82.465a1.441,1.441,0,0,0,1.453-1.453A13.126,13.126,0,0,0,61.512,28.93a12.646,12.646,0,0,0-3.844,9.281,13.131,13.131,0,0,0,21.68,9.961,1.413,1.413,0,0,0,.375-1.008,1.443,1.443,0,0,0-.422-1.043,1.44,1.44,0,0,0-1.945-.105h0ZM104.145,41.7a2.171,2.171,0,0,1,1.523,2.016,2.928,2.928,0,0,1-.727,2.016,8.9,8.9,0,0,1-6.773,2.7,9.84,9.84,0,0,1-7.219-3L90.223,44.7a1.273,1.273,0,0,0-.937-0.375,1.384,1.384,0,0,0-1.031.434,1.443,1.443,0,0,0-.422,1.043,1.386,1.386,0,0,0,.258.844,13.063,13.063,0,0,0,10.078,4.688,11.752,11.752,0,0,0,8.789-3.422,5.306,5.306,0,0,0,1.664-3.867,5.157,5.157,0,0,0-1.594-3.773,3.948,3.948,0,0,0-1.1-.809,14.946,14.946,0,0,0-1.805-.785h0.024L92.168,34.719a2.237,2.237,0,0,1-1.1-.773,2.282,2.282,0,0,1-.422-1.219,2.991,2.991,0,0,1,.7-2.016,8.962,8.962,0,0,1,6.82-2.719,9.844,9.844,0,0,1,7.219,3l0.726,0.727a1.151,1.151,0,0,0,.914.375,1.481,1.481,0,0,0,1.477-1.477,1.287,1.287,0,0,0-.258-0.82,15.188,15.188,0,0,0-4.617-3.48,12.424,12.424,0,0,0-5.461-1.231,11.83,11.83,0,0,0-8.812,3.422,5.392,5.392,0,0,0-1.641,3.867,5.246,5.246,0,0,0,1.57,3.773,4.349,4.349,0,0,0,1.125.809,14.825,14.825,0,0,0,1.8.785H92.191Zm13.312-24.316a1.947,1.947,0,1,0-2.754,2.754A1.947,1.947,0,0,0,117.457,17.387Zm-2.836,32.5a1.441,1.441,0,0,0,1.453,1.453,1.442,1.442,0,0,0,1.043-.422,1.384,1.384,0,0,0,.434-1.031V26.539a1.385,1.385,0,0,0-.434-1.031,1.443,1.443,0,0,0-1.043-.422,1.441,1.441,0,0,0-1.453,1.453V49.883ZM144.1,30.969a10.212,10.212,0,0,1,0,14.414,10.219,10.219,0,0,1-17.437-7.2A10.225,10.225,0,0,1,144.1,30.969h0Zm2.977,20.484A7.777,7.777,0,0,1,145.02,56.4,10.8,10.8,0,0,1,137.1,59.68a11.209,11.209,0,0,1-4.278-.809,10.979,10.979,0,0,1-3.621-2.449,11.864,11.864,0,0,1-1.945-2.555,1.609,1.609,0,0,0-1.383-.891,1.441,1.441,0,0,0-1.453,1.453,1.727,1.727,0,0,0,.258.867,13.014,13.014,0,0,0,2.461,3.164,14.117,14.117,0,0,0,19.945,0,9.665,9.665,0,0,0,2.93-7.008V38.188a13.125,13.125,0,0,0-26.25,0,13.082,13.082,0,0,0,13.125,13.078,13.314,13.314,0,0,0,10.195-4.734v4.922Zm6.7-1.57a1.453,1.453,0,1,0,2.906,0V37.25a8.827,8.827,0,0,1,2.7-6.516,9.139,9.139,0,0,1,13.054,0,8.738,8.738,0,0,1,2.719,6.516V49.883a1.441,1.441,0,0,0,1.453,1.453,1.442,1.442,0,0,0,1.043-.422,1.384,1.384,0,0,0,.434-1.031V37.25a11.681,11.681,0,0,0-3.586-8.6,11.6,11.6,0,0,0-8.578-3.562q-4.921,0-9.235,4.172V26.539a1.453,1.453,0,1,0-2.906,0V49.883Zm32.719-2.7a2.281,2.281,0,0,0-1.711-.7,2.354,2.354,0,0,0-1.734.7,2.28,2.28,0,0,0-.7,1.711,2.4,2.4,0,0,0,2.438,2.438,2.28,2.28,0,0,0,1.711-.7,2.355,2.355,0,0,0,.7-1.734,2.279,2.279,0,0,0-.7-1.711h0Zm21.7,1.266V16.719h6.258a15.924,15.924,0,0,1,15.867,15.867,15.884,15.884,0,0,1-15.867,15.867h-6.258Zm-1.453-34.617a1.375,1.375,0,0,0-1.008.422,1.4,1.4,0,0,0-.422,1.031V49.883a1.4,1.4,0,0,0,.422,1.031,1.375,1.375,0,0,0,1.008.422h7.711a18.044,18.044,0,0,0,13.242-5.484,18.082,18.082,0,0,0,5.508-13.266,18,18,0,0,0-5.508-13.242,18.006,18.006,0,0,0-13.242-5.508h-7.711Zm33.4,22.922a10.974,10.974,0,0,1,2.953-5.766,10.186,10.186,0,0,1,14.438,0,10.739,10.739,0,0,1,2.93,5.766H240.152Zm16.735,9.258a9.767,9.767,0,0,1-6.563,2.414,9.842,9.842,0,0,1-7.219-3,10.974,10.974,0,0,1-2.953-5.766H262a1.441,1.441,0,0,0,1.453-1.453,13.125,13.125,0,1,0-26.25,0,13.131,13.131,0,0,0,21.68,9.961,1.412,1.412,0,0,0,.375-1.008,1.444,1.444,0,0,0-.422-1.043,1.44,1.44,0,0,0-1.945-.105h0Zm23.742,4.594L291.41,27.1a1.345,1.345,0,0,0,.117-0.562,1.373,1.373,0,0,0-.433-1.043,1.467,1.467,0,0,0-1.043-.41,1.482,1.482,0,0,0-1.055.422,1.38,1.38,0,0,0-.258.352l-9.375,20.508-9.375-20.508a1.426,1.426,0,0,0-.258-0.375,1.529,1.529,0,0,0-1.054-.4,1.441,1.441,0,0,0-1.453,1.453,1.523,1.523,0,0,0,.093.563L278.1,50.609a1.072,1.072,0,0,0,.234.328,1.394,1.394,0,0,0,1.031.4,1.363,1.363,0,0,0,1.008-.352,1.25,1.25,0,0,0,.258-0.375h0Zm17.648-13.852a10.974,10.974,0,0,1,2.953-5.766,10.186,10.186,0,0,1,14.438,0,10.739,10.739,0,0,1,2.93,5.766H298.277Zm16.735,9.258a9.767,9.767,0,0,1-6.563,2.414,9.842,9.842,0,0,1-7.219-3,10.974,10.974,0,0,1-2.953-5.766h21.844a1.441,1.441,0,0,0,1.453-1.453,13.125,13.125,0,1,0-26.25,0A13.131,13.131,0,0,0,317,48.172a1.412,1.412,0,0,0,.375-1.008,1.444,1.444,0,0,0-.422-1.043,1.44,1.44,0,0,0-1.945-.105h0Zm10.476,3.867a1.441,1.441,0,0,0,1.453,1.453h3.891a1.442,1.442,0,0,0,1.043-.422,1.442,1.442,0,0,0,0-2.062,1.442,1.442,0,0,0-1.043-.422h-2.414V15.242a1.385,1.385,0,0,0-.434-1.031,1.441,1.441,0,0,0-1.043-.422,1.441,1.441,0,0,0-1.453,1.453V49.883ZM358.98,28.93a13.125,13.125,0,0,0-22.406,9.281,13.125,13.125,0,1,0,26.25,0,12.645,12.645,0,0,0-3.844-9.281h0Zm-2.062,2.063a10.241,10.241,0,0,1,0,14.437,10.219,10.219,0,0,1-17.438-7.219,10.209,10.209,0,0,1,17.438-7.219h0Zm15.562,0A10.2,10.2,0,0,1,389.9,38.211a10.208,10.208,0,1,1-17.415-7.219h0Zm-3,15.586,0.938,0.914a13.125,13.125,0,0,0,22.406-9.281,13.125,13.125,0,1,0-26.25,0V61.133a1.453,1.453,0,1,0,2.906,0V46.578Zm31.711,0.609a2.279,2.279,0,0,0-1.711-.7,2.357,2.357,0,0,0-1.734.7,2.279,2.279,0,0,0-.7,1.711,2.4,2.4,0,0,0,2.437,2.438,2.279,2.279,0,0,0,1.711-.7,2.356,2.356,0,0,0,.7-1.734,2.28,2.28,0,0,0-.7-1.711h0Zm36.235,3.234a1.452,1.452,0,0,0,2.578.234l14.625-29.273v28.5a1.441,1.441,0,0,0,1.453,1.453,1.367,1.367,0,0,0,1.02-.422,1.425,1.425,0,0,0,.41-1.031V15.289a1.425,1.425,0,0,0-.41-1.031,1.367,1.367,0,0,0-1.02-.422,1.384,1.384,0,0,0-1.289.75L438.762,46.672,422.73,14.586a1.333,1.333,0,0,0-1.265-.75,1.441,1.441,0,0,0-1.453,1.453V49.883a1.441,1.441,0,0,0,1.453,1.453,1.363,1.363,0,0,0,1.019-.422,1.422,1.422,0,0,0,.411-1.031v-28.5Zm44.179-19.43a10.241,10.241,0,0,1,0,14.437,10.219,10.219,0,0,1-17.437-7.219,10.209,10.209,0,0,1,17.437-7.219h0Zm2.977,18.891a1.38,1.38,0,0,0,.434,1.031,1.441,1.441,0,0,0,1.043.422,1.441,1.441,0,0,0,1.453-1.453V38.211a13.125,13.125,0,1,0-26.25,0,13.122,13.122,0,0,0,13.125,13.125q5.46,0,10.195-4.758v3.3Zm6.75,0a1.453,1.453,0,1,0,2.906,0V38.211a10.243,10.243,0,0,1,10.219-10.219,9.058,9.058,0,0,1,3.984.8,1.455,1.455,0,0,0,.657.141,1.475,1.475,0,0,0,1.054-2.484A1.908,1.908,0,0,0,509.473,26a12.454,12.454,0,0,0-5.016-.914q-5.462,0-10.219,4.758v-3.3a1.453,1.453,0,1,0-2.906,0V49.883Zm25.383-34.641a1.441,1.441,0,0,0-1.453-1.453,1.441,1.441,0,0,0-1.043.422,1.381,1.381,0,0,0-.434,1.031V49.883a1.38,1.38,0,0,0,.434,1.031,1.441,1.441,0,0,0,1.043.422,1.441,1.441,0,0,0,1.453-1.453V39.969l4.57-2.977,12.352,13.875a1.443,1.443,0,0,0,2.508-.984,1.445,1.445,0,0,0-.4-1.031L523.816,35.4l11.86-7.758a1.288,1.288,0,0,0,.469-1.1,1.469,1.469,0,0,0-2.227-1.242l-17.2,11.18V15.242Zm26.25,21.516a10.974,10.974,0,0,1,2.953-5.766,10.184,10.184,0,0,1,14.437,0,10.725,10.725,0,0,1,2.93,5.766h-20.32ZM559.7,46.016a9.767,9.767,0,0,1-6.562,2.414,9.84,9.84,0,0,1-7.219-3,10.974,10.974,0,0,1-2.953-5.766h21.844a1.441,1.441,0,0,0,1.453-1.453,13.125,13.125,0,1,0-26.25,0,13.13,13.13,0,0,0,21.679,9.961,1.412,1.412,0,0,0,.375-1.008,1.443,1.443,0,0,0-.421-1.043,1.441,1.441,0,0,0-1.946-.105h0ZM576.926,42.1V27.992h4.383a1.444,1.444,0,0,0,1.043-.422,1.445,1.445,0,0,0,0-2.062,1.444,1.444,0,0,0-1.043-.422h-4.383v-9.82a1.384,1.384,0,0,0-.434-1.031,1.442,1.442,0,0,0-1.043-.422A1.441,1.441,0,0,0,574,15.266v9.82h-2.414a1.443,1.443,0,0,0-1.043.422,1.442,1.442,0,0,0,0,2.063,1.442,1.442,0,0,0,1.043.422H574V42.1q0,9.234,9.234,9.234a1.441,1.441,0,0,0,1.043-.422,1.442,1.442,0,0,0,0-2.062,1.441,1.441,0,0,0-1.043-.422q-6.3,0-6.3-6.328h0Zm16.781-24.715a1.947,1.947,0,1,0-2.754,2.754A1.947,1.947,0,0,0,593.707,17.387Zm-2.836,32.5a1.441,1.441,0,0,0,1.453,1.453,1.442,1.442,0,0,0,1.043-.422,1.384,1.384,0,0,0,.434-1.031V26.539a1.385,1.385,0,0,0-.434-1.031,1.443,1.443,0,0,0-1.043-.422,1.441,1.441,0,0,0-1.453,1.453V49.883Zm9.164,0a1.453,1.453,0,1,0,2.906,0V37.25a8.827,8.827,0,0,1,2.7-6.516,9.139,9.139,0,0,1,13.054,0,8.738,8.738,0,0,1,2.719,6.516V49.883a1.441,1.441,0,0,0,1.453,1.453,1.442,1.442,0,0,0,1.043-.422,1.384,1.384,0,0,0,.434-1.031V37.25a11.681,11.681,0,0,0-3.586-8.6,11.6,11.6,0,0,0-8.578-3.562q-4.922,0-9.235,4.172V26.539a1.453,1.453,0,1,0-2.906,0V49.883ZM648.48,30.969a10.212,10.212,0,0,1,0,14.414,10.219,10.219,0,0,1-17.437-7.2,10.225,10.225,0,0,1,17.437-7.219h0Zm2.977,20.484A7.777,7.777,0,0,1,649.4,56.4a10.8,10.8,0,0,1-7.922,3.281,11.209,11.209,0,0,1-4.278-.809,10.979,10.979,0,0,1-3.621-2.449,11.864,11.864,0,0,1-1.945-2.555,1.609,1.609,0,0,0-1.383-.891,1.441,1.441,0,0,0-1.453,1.453,1.727,1.727,0,0,0,.258.867,13.014,13.014,0,0,0,2.461,3.164,14.117,14.117,0,0,0,19.945,0,9.665,9.665,0,0,0,2.93-7.008V38.188a13.125,13.125,0,0,0-26.25,0,13.082,13.082,0,0,0,13.125,13.078,13.314,13.314,0,0,0,10.2-4.734v4.922ZM97.22,119.174H69.853V94.182c8.976-1.32,17.248-2.9,24.2-4.312a7.347,7.347,0,0,0,2.728.7,2.517,2.517,0,0,0,1.5-.44L93.26,85.383c-13.9,4.048-39.951,8.976-60.806,11.088l0.352,1.848c10.824-.7,22.351-1.936,33.087-3.52v24.376H27.438l0.616,2.287H65.893v44.615c3.344,0,3.96-1.408,3.96-1.5V121.461H104.26c2.552,0,3.52-.7,4.224-2.023l-7.392-5.192Zm68.113-5.368c2.376,0,3.256-.616,3.96-2.024l-6.336-4.488-3.344,4.224h-5.9V93.742c4.048-1.408,7.656-2.9,10.56-4.224a8.6,8.6,0,0,0,2.288.44,1.959,1.959,0,0,0,1.672-.616l-5.808-4.224c-6.424,4.136-19.271,9.944-29.831,12.936a11.753,11.753,0,0,1,.616,1.584,144.207,144.207,0,0,0,16.543-4.488v16.368H133.126l0.616,2.288h13.9c-2.9,12.407-8.007,24.639-15.4,34.143l1.32,1.32a76.826,76.826,0,0,0,16.191-26.752v43.471c3.344,0,3.96-1.5,3.96-1.584V126.653c3.784,3.52,8.36,9.152,9.856,13.2a3.021,3.021,0,0,0,1.672.616c1.232,0,2.024-.968,2.024-2.552,0-3.08-3.256-8.36-13.552-12.848V113.806h11.616Zm21.031-18.48c0,30.007-1.144,53.415-24.727,69.342l1.32,1.672c20.239-12.671,25.343-30.271,26.751-51.478H189.8c2.2,23.5,7.48,40.83,20.592,51.654,0.7-2.112,2.112-2.464,4.047-2.552l0.352-.968c-19.447-14.343-23.407-37.927-24.463-74.8,3.08-.264,3.608-0.968,3.7-2.2l-7.656-.528v9.856Zm13.376,34.143a177.268,177.268,0,0,0,11.176-20.5c2.024,0.088,2.728-.352,3.08-1.32l-7.216-2.552c-2.552,8.184-5.984,17.687-8.536,23.583Zm-24.551-24.111c0.264,7.744-2.9,15.487-6.6,18.479a4.271,4.271,0,0,0-1.5,2.816,1.658,1.658,0,0,0,1.76,1.76c4.224,0,8.8-6.776,8.8-16.1a34.363,34.363,0,0,0-.792-6.952h-1.672Zm131.295,19.359H273.4l0.7,2.288h4.4c2.552,9.5,6.6,17.248,12.143,23.5a74.863,74.863,0,0,1-23.5,13.9l0.616,1.672a75.592,75.592,0,0,0,25.167-13.2c5.984,5.895,13.64,10.295,22.968,13.375a4.769,4.769,0,0,1,4.311-3.344l0.176-.968c-9.679-2.464-17.863-6.336-24.463-11.7A62.149,62.149,0,0,0,311.06,127.8c2.024-.088,2.992-0.352,3.7-1.056l-5.192-4.84Zm0.088,2.288a59.867,59.867,0,0,1-13.288,20.856,48.518,48.518,0,0,1-12.759-20.856h26.047ZM265.3,131.933l-2.2,2.9H246.91l-4.4-2.2v32.207c3.344,0,3.96-1.32,3.96-1.408v-6.6h17.511v5.016c2.552,0,3.872-1.32,3.96-1.584V138.357a7.563,7.563,0,0,0,3.872-1.76Zm-18.831,5.192h17.511v17.424H246.47V137.125Zm17.6-50.951-3.344,4.312h-18.3l0.616,2.288h23.5c2.376,0,3.344-.616,4.048-2.024ZM284.045,91.1h18.831v20.416c0,4.752.352,5.808,5.192,5.808h6.248c4.488,0,5.807-1.056,5.807-2.552,0-.7-0.439-0.88-2.023-1.5v-8.624h-0.968a51.3,51.3,0,0,1-2.2,8.184,1.429,1.429,0,0,1-1.584.88h-5.28c-1.232,0-1.232-.088-1.232-1.672V92.422A5.94,5.94,0,0,0,310,91.19l-5.808-4.84-1.936,2.464H285.013l-4.928-2.464v8.712c0,8.1-1.32,17.072-10.12,24.816l1.056,1.319c11.88-7.567,13.024-18.655,13.024-26.135V91.1Zm-19.272,10.3H238.286l0.616,2.288h31.855c2.376,0,3.344-.616,4.048-2.024l-6.6-4.576ZM242.686,114.95h23.055c2.376,0,3.256-.616,3.96-2.024l-5.9-4.136-2.992,3.872H242.07Zm20.767,5.016-3.08,3.959h-18.3l0.616,2.288h22.967c2.376,0,3.256-.616,3.96-2.024Zm89.409,16.015-4.4-2.2v32.207c3.344,0,3.96-1.32,3.96-1.408v-6.336h19.271v5.192a4.689,4.689,0,0,0,3.96-1.672V139.5a7.563,7.563,0,0,0,3.872-1.76l-6.512-4.664-2.2,2.9H352.862Zm-0.44,2.288h19.271v17.687H352.422V138.269ZM415.6,116.534H404.516V88.2c3.168-.264,4.136-0.968,4.312-2.376l-8.272-.7v31.416H380.405l0.616,2.288h19.535v47.43c3.344,0,3.96-1.5,3.96-1.848V118.822h17.512c2.464,0,3.431-.616,4.135-2.024l-6.951-4.84ZM371.869,86.615l-3.432,4.4H347.67l0.616,2.288h26.135c2.464,0,3.344-.616,4.136-2.024Zm1.936,15.575H343.534l0.616,2.288h35.9c2.464,0,3.344-.616,4.136-2.024L377.325,97.7Zm-4.136,11.264H348.11l0.616,2.288h26.4c2.376,0,3.344-.616,4.048-2.024l-6.248-4.312Zm5.456,13.551c2.376,0,3.344-.616,4.048-2.024l-6.248-4.312-3.256,4.048H348.11l0.616,2.288h26.4Zm105.952,10.3c2.552,0,3.872-1.32,3.96-1.584V110.462a7.563,7.563,0,0,0,3.872-1.76l-6.512-4.664-2.2,2.9H460.662l-4.84-2.464v22.7c0,13.024-.44,26.752-7.128,37.839l1.408,1.056c8.184-9.856,9.5-23.319,9.68-34.671h21.3v5.9Zm0-8.184h-21.3V109.23h21.3v19.887ZM521.82,115.39H497.884V95.766a180.75,180.75,0,0,0,26.664-5.28,7.759,7.759,0,0,0,2.552.528,2.151,2.151,0,0,0,1.584-.528l-6.16-5.368c-5.28,2.728-15.136,6.336-23.672,8.624l-4.927-1.848v30.711c0,16.632-2.288,31.152-15.4,42.327l1.32,1.232c16.016-11.088,18.039-27.807,18.039-43.647v-4.839h16.984v48.4c3.432,0,3.96-1.5,3.96-1.5v-46.9h9.24c2.376,0,3.431-.616,4.135-2.024L525.34,110.9Zm-37.4-28.424-3.52,4.488H449.838l0.616,2.288h36.695c2.464,0,3.432-.616,4.136-2.024Z"/>
  <path id="ChiAki_Design_for_Graphic_UI_UX" data-name="ChiAki Design for Graphic&amp;UI/UX" class="cls-1" d="M248.717,177.15a4.152,4.152,0,0,0-.484-1.608,3.9,3.9,0,0,0-1.022-1.194,4.545,4.545,0,0,0-1.46-.749,5.9,5.9,0,0,0-1.764-.258,5.183,5.183,0,0,0-2.24.468,5.013,5.013,0,0,0-1.678,1.265,5.594,5.594,0,0,0-1.054,1.858,7.114,7.114,0,0,0,0,4.511,5.594,5.594,0,0,0,1.054,1.858,4.915,4.915,0,0,0,1.678,1.257,5.27,5.27,0,0,0,2.24.46,5.079,5.079,0,0,0,1.858-.328,4.362,4.362,0,0,0,1.467-.929,4.46,4.46,0,0,0,.991-1.428,5.282,5.282,0,0,0,.43-1.827h-1.905a4.478,4.478,0,0,1-.265,1.14,2.953,2.953,0,0,1-.562.929,2.572,2.572,0,0,1-.859.624,2.771,2.771,0,0,1-1.155.227,3.13,3.13,0,0,1-1.538-.359,3.031,3.031,0,0,1-1.054-.96,4.345,4.345,0,0,1-.6-1.366,6.35,6.35,0,0,1,0-3.123,4.356,4.356,0,0,1,.6-1.366,3.031,3.031,0,0,1,1.054-.96,3.13,3.13,0,0,1,1.538-.359,3.189,3.189,0,0,1,1.069.164,2.448,2.448,0,0,1,1.366,1.163,3.994,3.994,0,0,1,.344.89h1.951Zm3.107,7.6H253.6v-4.762a2.415,2.415,0,0,1,.141-0.827,2.113,2.113,0,0,1,.39-0.679,1.742,1.742,0,0,1,.609-0.453,1.937,1.937,0,0,1,.812-0.164,1.47,1.47,0,0,1,1.17.43,2.19,2.19,0,0,1,.406,1.381v5.074h1.78v-5.542a2.63,2.63,0,0,0-.765-2.061,3.016,3.016,0,0,0-2.092-.687,2.884,2.884,0,0,0-1.444.367,2.6,2.6,0,0,0-.976.913H253.6v-4.137h-1.779v11.147Zm10.568-9.461h1.78v-1.686h-1.78v1.686Zm0,9.461h1.78v-8.071h-1.78v8.071Zm4.231,0h2.014l1.046-2.951h4.449l1.046,2.951h2.092l-4.293-11.147H270.9Zm5.276-9.226h0.047l1.671,4.792h-3.4Zm7.79,9.226h1.78v-2.888l1.061-1.031L285,184.753h2.17l-3.388-5.1,3.091-2.966h-2.185l-3.216,3.262v-6.338h-1.78v11.147Zm9.944-9.461h1.78v-1.686h-1.78v1.686Zm0,9.461h1.78v-8.071h-1.78v8.071Zm11.428,0h4.621a5.2,5.2,0,0,0,2.216-.437,4.116,4.116,0,0,0,1.53-1.195,5.074,5.074,0,0,0,.882-1.772,8.288,8.288,0,0,0,0-4.339,5.083,5.083,0,0,0-.882-1.772,4.116,4.116,0,0,0-1.53-1.195,5.2,5.2,0,0,0-2.216-.437h-4.621v11.147Zm1.951-9.554h1.92a4.871,4.871,0,0,1,1.866.3,2.723,2.723,0,0,1,1.139.843,3.044,3.044,0,0,1,.562,1.265,8.33,8.33,0,0,1,0,3.137,3.044,3.044,0,0,1-.562,1.265,2.723,2.723,0,0,1-1.139.843,4.871,4.871,0,0,1-1.866.3h-1.92V175.2Zm12.02,4.808a2.387,2.387,0,0,1,.18-0.843,2.244,2.244,0,0,1,.437-0.679,1.936,1.936,0,0,1,.656-0.453,2.142,2.142,0,0,1,.851-0.164,1.834,1.834,0,0,1,.819.18,2.007,2.007,0,0,1,.625.468,2.206,2.206,0,0,1,.406.679,2.906,2.906,0,0,1,.179.812h-4.153Zm5.933,1.171a4.651,4.651,0,0,0-.117-1.756,4.264,4.264,0,0,0-.726-1.507,3.758,3.758,0,0,0-1.257-1.054,3.623,3.623,0,0,0-1.709-.4,3.662,3.662,0,0,0-2.849,1.273,4.159,4.159,0,0,0-.781,1.358,4.86,4.86,0,0,0-.273,1.631,5.474,5.474,0,0,0,.257,1.717,3.717,3.717,0,0,0,.765,1.343,3.478,3.478,0,0,0,1.241.874,4.275,4.275,0,0,0,1.686.312,4.39,4.39,0,0,0,1.257-.179,3.584,3.584,0,0,0,1.085-.531,3.346,3.346,0,0,0,1.311-2.037h-1.686a1.989,1.989,0,0,1-.71,1.007,2.135,2.135,0,0,1-1.257.335,2.212,2.212,0,0,1-.967-0.195,1.912,1.912,0,0,1-.672-0.523,2.212,2.212,0,0,1-.4-0.765,3.112,3.112,0,0,1-.133-0.905h5.933Zm2.482,0.983a2.761,2.761,0,0,0,.289,1.241,2.525,2.525,0,0,0,.749.875,3.3,3.3,0,0,0,1.124.523,5.527,5.527,0,0,0,1.413.171,5.919,5.919,0,0,0,1.264-.14,3.873,3.873,0,0,0,1.163-.453,2.584,2.584,0,0,0,.851-0.812,2.167,2.167,0,0,0,.328-1.217,1.933,1.933,0,0,0-.82-1.671,3.059,3.059,0,0,0-.835-0.421q-0.468-.156-0.952-0.266-0.5-.108-0.968-0.2a5.685,5.685,0,0,1-.835-0.226,1.757,1.757,0,0,1-.593-0.336,0.678,0.678,0,0,1-.227-0.53,0.6,0.6,0,0,1,.156-0.43,1.018,1.018,0,0,1,.383-0.249,2.029,2.029,0,0,1,.484-0.118,3.952,3.952,0,0,1,.445-0.031,2.431,2.431,0,0,1,1.054.219,1.11,1.11,0,0,1,.585.858h1.858a2.69,2.69,0,0,0-.383-1.147,2.531,2.531,0,0,0-.765-0.773,3.248,3.248,0,0,0-1.03-.429,5.277,5.277,0,0,0-1.194-.133,6.5,6.5,0,0,0-1.148.109,3.543,3.543,0,0,0-1.093.383,2.449,2.449,0,0,0-.811.718,1.834,1.834,0,0,0-.32,1.1,2.161,2.161,0,0,0,.218,1.022,1.946,1.946,0,0,0,.586.679,3.084,3.084,0,0,0,.827.422,8.989,8.989,0,0,0,.96.265q0.485,0.109.952,0.2a5.962,5.962,0,0,1,.836.226,1.749,1.749,0,0,1,.6.352,0.785,0.785,0,0,1,.249.562,0.765,0.765,0,0,1-.164.554,1.132,1.132,0,0,1-.46.32,2.472,2.472,0,0,1-.6.148,4.785,4.785,0,0,1-.57.039,2.333,2.333,0,0,1-1.233-.312,1.338,1.338,0,0,1-.593-1.093h-1.78Zm10.147-6.869h1.78v-1.686h-1.78v1.686Zm0,9.461h1.78v-8.071h-1.78v8.071Zm12.739-8.071h-1.78v1.108h-0.031a2.175,2.175,0,0,0-.984-1.007,3.1,3.1,0,0,0-1.405-.32,3.422,3.422,0,0,0-2.685,1.21,3.96,3.96,0,0,0-.718,1.288,4.774,4.774,0,0,0-.25,1.545,6.391,6.391,0,0,0,.2,1.64,3.828,3.828,0,0,0,.648,1.35,3.139,3.139,0,0,0,1.124.921,3.686,3.686,0,0,0,1.647.336,2.74,2.74,0,0,0,1.4-.375,2.707,2.707,0,0,0,1.023-1.046h0.031v1.233a2.15,2.15,0,0,1-.5,1.53,2.077,2.077,0,0,1-1.577.531,5.3,5.3,0,0,1-.656-0.039,1.684,1.684,0,0,1-.57-0.172,1.36,1.36,0,0,1-.445-0.367,1.435,1.435,0,0,1-.265-0.608h-1.78a2.377,2.377,0,0,0,.406,1.186,2.713,2.713,0,0,0,.851.781,3.652,3.652,0,0,0,1.124.421,6.184,6.184,0,0,0,1.226.125,4.321,4.321,0,0,0,2.942-.9,3.433,3.433,0,0,0,1.023-2.724v-7.649Zm-4.91,6.432a2.057,2.057,0,0,1-.656-0.609,2.7,2.7,0,0,1-.382-0.851,3.841,3.841,0,0,1-.125-0.976,4.767,4.767,0,0,1,.109-1.007,2.807,2.807,0,0,1,.359-0.905,2,2,0,0,1,.656-0.648,1.879,1.879,0,0,1,1-.25,2.1,2.1,0,0,1,.992.219,1.856,1.856,0,0,1,.671.593,2.674,2.674,0,0,1,.382.859,3.986,3.986,0,0,1,.125,1,4.533,4.533,0,0,1-.117,1.022,2.812,2.812,0,0,1-.375.906,1.888,1.888,0,0,1-1.678.882A1.863,1.863,0,0,1,341.423,183.114Zm8.266,1.639h1.78v-4.762a2.439,2.439,0,0,1,.14-0.827,2.15,2.15,0,0,1,.39-0.679,1.76,1.76,0,0,1,.609-0.453,1.94,1.94,0,0,1,.812-0.164,1.472,1.472,0,0,1,1.171.43,2.19,2.19,0,0,1,.406,1.381v5.074h1.78v-5.542a2.633,2.633,0,0,0-.765-2.061,3.018,3.018,0,0,0-2.092-.687,2.829,2.829,0,0,0-1.452.383,2.992,2.992,0,0,0-1.062,1.053l-0.031-.031v-1.186h-1.686v8.071Zm15.627-6.744h1.327v6.744h1.779v-6.744h1.515v-1.327h-1.515v-0.828a0.752,0.752,0,0,1,.258-0.671,1.09,1.09,0,0,1,.617-0.172,3.832,3.832,0,0,1,.46.024,2.514,2.514,0,0,1,.367.07v-1.389a5.082,5.082,0,0,0-1.249-.11,3.966,3.966,0,0,0-.835.086,1.646,1.646,0,0,0-.71.344,1.752,1.752,0,0,0-.5.733,3.446,3.446,0,0,0-.187,1.241v0.672h-1.327v1.327Zm12.7,6.642a3.67,3.67,0,0,0,1.28-.882,3.76,3.76,0,0,0,.8-1.342,5.176,5.176,0,0,0,.274-1.718,5.117,5.117,0,0,0-.274-1.7,3.773,3.773,0,0,0-.8-1.343,3.7,3.7,0,0,0-1.28-.882,4.809,4.809,0,0,0-3.45,0,3.7,3.7,0,0,0-1.28.882,3.773,3.773,0,0,0-.8,1.343,5.117,5.117,0,0,0-.273,1.7,5.176,5.176,0,0,0,.273,1.718,3.76,3.76,0,0,0,.8,1.342,3.67,3.67,0,0,0,1.28.882A4.809,4.809,0,0,0,378.015,184.651Zm-2.755-1.334a2.164,2.164,0,0,1-.718-0.656,2.843,2.843,0,0,1-.414-0.913,4.09,4.09,0,0,1,0-2.069,2.739,2.739,0,0,1,.414-0.913,2.194,2.194,0,0,1,.718-0.648,2.247,2.247,0,0,1,2.06,0,2.208,2.208,0,0,1,.719.648,2.757,2.757,0,0,1,.413.913,4.09,4.09,0,0,1,0,2.069,2.862,2.862,0,0,1-.413.913,2.177,2.177,0,0,1-.719.656A2.255,2.255,0,0,1,375.26,183.317Zm8.149,1.436h1.779v-3.841a3.732,3.732,0,0,1,.172-1.186,2.6,2.6,0,0,1,.468-0.866,1.944,1.944,0,0,1,.7-0.531,2.04,2.04,0,0,1,.851-0.18,3.122,3.122,0,0,1,.382.024c0.13,0.015.258,0.034,0.383,0.054V176.51l-0.242-.031a3.931,3.931,0,0,0-.429-0.016,2.13,2.13,0,0,0-.8.156,2.747,2.747,0,0,0-.71.414,2.962,2.962,0,0,0-.546.57,1.8,1.8,0,0,0-.305.64h-0.031v-1.561h-1.67v8.071Zm22.932-5.87H401.6v1.483h2.966a4.147,4.147,0,0,1-.219,1.28,2.561,2.561,0,0,1-.6.976,2.645,2.645,0,0,1-.976.609,3.653,3.653,0,0,1-1.327.195,3.124,3.124,0,0,1-1.537-.359,3.022,3.022,0,0,1-1.054-.96,4.323,4.323,0,0,1-.6-1.366,6.35,6.35,0,0,1,0-3.123,4.333,4.333,0,0,1,.6-1.366,3.022,3.022,0,0,1,1.054-.96,3.124,3.124,0,0,1,1.537-.359,3.613,3.613,0,0,1,1.015.141,2.821,2.821,0,0,1,.874.421,2.395,2.395,0,0,1,.984,1.655h1.9a4.179,4.179,0,0,0-.53-1.655,3.991,3.991,0,0,0-1.062-1.194,4.608,4.608,0,0,0-1.46-.718,6.068,6.068,0,0,0-1.725-.242,5.186,5.186,0,0,0-2.24.468,5.023,5.023,0,0,0-1.678,1.265,5.629,5.629,0,0,0-1.054,1.858,7.114,7.114,0,0,0,0,4.511,5.629,5.629,0,0,0,1.054,1.858,4.924,4.924,0,0,0,1.678,1.257,5.273,5.273,0,0,0,2.24.46,4.44,4.44,0,0,0,1.8-.343,4.64,4.64,0,0,0,1.561-1.234l0.3,1.312h1.249v-5.87Zm3.435,5.87h1.779v-3.841a3.732,3.732,0,0,1,.172-1.186,2.6,2.6,0,0,1,.468-0.866,1.944,1.944,0,0,1,.695-0.531,2.04,2.04,0,0,1,.851-0.18,3.122,3.122,0,0,1,.382.024c0.13,0.015.258,0.034,0.383,0.054V176.51l-0.242-.031a3.931,3.931,0,0,0-.429-0.016,2.13,2.13,0,0,0-.8.156,2.747,2.747,0,0,0-.71.414,2.962,2.962,0,0,0-.546.57,1.8,1.8,0,0,0-.305.64h-0.031v-1.561h-1.67v8.071Zm13.815-5.948a1.986,1.986,0,0,0-.281-1.085,2.237,2.237,0,0,0-.741-0.726,3.352,3.352,0,0,0-1.038-.406,5.546,5.546,0,0,0-1.171-.125,6.858,6.858,0,0,0-1.312.125,3.437,3.437,0,0,0-1.147.437,2.589,2.589,0,0,0-.835.828,2.669,2.669,0,0,0-.375,1.295h1.78a1.219,1.219,0,0,1,.546-0.968,2.239,2.239,0,0,1,1.234-.312,4.333,4.333,0,0,1,.562.039,1.754,1.754,0,0,1,.538.156,1.1,1.1,0,0,1,.406.336,0.914,0.914,0,0,1,.164.562,0.8,0.8,0,0,1-.195.585,1.17,1.17,0,0,1-.531.289,4.267,4.267,0,0,1-.773.133,9.005,9.005,0,0,0-.921.133c-0.374.041-.747,0.1-1.116,0.179a3.239,3.239,0,0,0-1,.383,2.02,2.02,0,0,0-.718.733,2.4,2.4,0,0,0-.273,1.218,2.255,2.255,0,0,0,.226,1.038,2.1,2.1,0,0,0,.609.734,2.738,2.738,0,0,0,.882.437,3.648,3.648,0,0,0,1.046.148,5.146,5.146,0,0,0,1.491-.234,3.151,3.151,0,0,0,1.3-.749,1.089,1.089,0,0,0,.469.765,1.72,1.72,0,0,0,.905.218c0.073,0,.161,0,0.265-0.015s0.208-.026.313-0.047,0.2-.045.3-0.07,0.18-.05.242-0.071v-1.233a1.157,1.157,0,0,1-.25.031h-0.187a0.363,0.363,0,0,1-.336-0.14,0.949,0.949,0,0,1-.086-0.469v-4.152Zm-1.779,3.231a1.21,1.21,0,0,1-.2.711,1.724,1.724,0,0,1-.508.476,2.125,2.125,0,0,1-.648.265,2.9,2.9,0,0,1-.64.078,3.213,3.213,0,0,1-.523-0.047,1.906,1.906,0,0,1-.53-0.163,1.253,1.253,0,0,1-.414-0.32,0.746,0.746,0,0,1-.172-0.5,1.332,1.332,0,0,1,.117-0.585,1.028,1.028,0,0,1,.32-0.391,1.648,1.648,0,0,1,.469-0.234,3.954,3.954,0,0,1,.546-0.133q0.594-.108,1.187-0.164a2.146,2.146,0,0,0,1-.32v1.327Zm5.307,5.7h1.78v-4.027h0.031a2.243,2.243,0,0,0,.508.57,2.97,2.97,0,0,0,.663.4,3.384,3.384,0,0,0,.75.226,4.376,4.376,0,0,0,.78.07,3.118,3.118,0,0,0,2.631-1.288,4.111,4.111,0,0,0,.64-1.35,5.926,5.926,0,0,0,.21-1.577,5.786,5.786,0,0,0-.234-1.67,4,4,0,0,0-.7-1.366A3.279,3.279,0,0,0,433,176.8a3.852,3.852,0,0,0-1.662-.336,3.47,3.47,0,0,0-1.452.305,2.193,2.193,0,0,0-1.046,1.007h-0.032v-1.093h-1.686v11.052Zm6.1-5.971a2.631,2.631,0,0,1-.391.906,2.185,2.185,0,0,1-.694.648,2,2,0,0,1-1.031.249,2.023,2.023,0,0,1-.96-0.218,2.234,2.234,0,0,1-.71-0.593,2.546,2.546,0,0,1-.445-0.9,4.132,4.132,0,0,1-.148-1.132,3.435,3.435,0,0,1,.57-2.076,1.959,1.959,0,0,1,1.693-.781,1.911,1.911,0,0,1,.968.242,2.2,2.2,0,0,1,.7.64,2.886,2.886,0,0,1,.421.913,4.011,4.011,0,0,1,.141,1.062A4.6,4.6,0,0,1,433.216,181.763Zm4.956,2.99h1.78v-4.762a2.439,2.439,0,0,1,.14-0.827,2.134,2.134,0,0,1,.391-0.679,1.747,1.747,0,0,1,.608-0.453,1.94,1.94,0,0,1,.812-0.164,1.472,1.472,0,0,1,1.171.43,2.19,2.19,0,0,1,.406,1.381v5.074h1.78v-5.542a2.633,2.633,0,0,0-.765-2.061,3.018,3.018,0,0,0-2.092-.687,2.882,2.882,0,0,0-1.444.367,2.6,2.6,0,0,0-.976.913h-0.031v-4.137h-1.78v11.147Zm10.569-9.461h1.779v-1.686h-1.779v1.686Zm0,9.461h1.779v-8.071h-1.779v8.071Zm12.5-5.371a3.091,3.091,0,0,0-.374-1.3,2.9,2.9,0,0,0-.8-0.906,3.515,3.515,0,0,0-1.124-.538,4.858,4.858,0,0,0-1.335-.18,4.186,4.186,0,0,0-1.741.336,3.515,3.515,0,0,0-1.241.921,3.891,3.891,0,0,0-.749,1.381,5.645,5.645,0,0,0-.25,1.7,5.149,5.149,0,0,0,.258,1.655,3.682,3.682,0,0,0,.757,1.319,3.542,3.542,0,0,0,1.225.874,4.131,4.131,0,0,0,1.678.32,3.644,3.644,0,0,0,2.506-.835,3.906,3.906,0,0,0,1.194-2.412h-1.779a2.253,2.253,0,0,1-.633,1.358,1.788,1.788,0,0,1-1.288.484,1.878,1.878,0,0,1-.983-0.242,2.027,2.027,0,0,1-.664-0.632,2.744,2.744,0,0,1-.374-0.89,4.367,4.367,0,0,1-.117-1,4.232,4.232,0,0,1,.218-1.491,2.454,2.454,0,0,1,.547-0.89,1.735,1.735,0,0,1,.718-0.437,2.555,2.555,0,0,1,.733-0.117,1.963,1.963,0,0,1,1.242.383,1.673,1.673,0,0,1,.6,1.131h1.779Zm10.226,5.371h2.185l-2.139-2.592a5.228,5.228,0,0,0,.586-1.295,8.025,8.025,0,0,0,.289-1.437h-1.561a6.081,6.081,0,0,1-.157.89q-0.093.344-.187,0.609l-1.733-2.092a5.822,5.822,0,0,0,.773-0.5,3.554,3.554,0,0,0,.64-0.633,3.042,3.042,0,0,0,.437-0.772,2.527,2.527,0,0,0,.164-0.922,2.733,2.733,0,0,0-.234-1.17,2.447,2.447,0,0,0-1.507-1.335,3.362,3.362,0,0,0-1.038-.164,3,3,0,0,0-1.061.187,2.608,2.608,0,0,0-.875.539,2.52,2.52,0,0,0-.585.835,2.721,2.721,0,0,0-.211,1.093,2.51,2.51,0,0,0,.094.687,3.227,3.227,0,0,0,.25.624,4.255,4.255,0,0,0,.359.57q0.2,0.273.421,0.554a9.385,9.385,0,0,0-.944.562,4.531,4.531,0,0,0-.82.711,3.374,3.374,0,0,0-.577.882,2.579,2.579,0,0,0-.219,1.077,3.59,3.59,0,0,0,.258,1.4,2.837,2.837,0,0,0,.726,1.038,3.246,3.246,0,0,0,1.116.648,4.255,4.255,0,0,0,1.413.226,4.1,4.1,0,0,0,1.74-.351,3.938,3.938,0,0,0,1.382-1.116Zm-1.967-2.436q-0.126.172-.289,0.391a2.166,2.166,0,0,1-.406.406,2.372,2.372,0,0,1-.586.32,2.306,2.306,0,0,1-.827.132,1.79,1.79,0,0,1-1.288-.484,1.828,1.828,0,0,1-.507-1.389,1.714,1.714,0,0,1,.179-0.827,2.154,2.154,0,0,1,.437-0.562,2.646,2.646,0,0,1,.555-0.391q0.3-.156.546-0.312Zm-0.641-7.282a1.355,1.355,0,0,1,.313.913,1.539,1.539,0,0,1-.11.593,1.635,1.635,0,0,1-.3.476,3.031,3.031,0,0,1-.422.391c-0.156.119-.317,0.237-0.484,0.351q-0.156-.2-0.335-0.422a4.981,4.981,0,0,1-.328-0.445,2.85,2.85,0,0,1-.25-0.468,1.329,1.329,0,0,1-.1-0.523,1.2,1.2,0,0,1,.343-0.9,1.159,1.159,0,0,1,.843-0.336A1.03,1.03,0,0,1,468.863,175.035Zm7.2,5.706a4.891,4.891,0,0,0,.328,1.873,3.606,3.606,0,0,0,.929,1.335,3.871,3.871,0,0,0,1.444.8,6.755,6.755,0,0,0,3.747,0,3.879,3.879,0,0,0,1.444-.8,3.618,3.618,0,0,0,.929-1.335,4.911,4.911,0,0,0,.327-1.873v-7.135h-1.951v6.5q0,0.561-.055,1.139a2.587,2.587,0,0,1-.312,1.038,2,2,0,0,1-.78.758,3.826,3.826,0,0,1-2.951,0,2,2,0,0,1-.781-0.758,2.619,2.619,0,0,1-.312-1.038q-0.054-.578-0.054-1.139v-6.5H476.06v7.135Zm12.957,4.012h1.952V173.606h-1.952v11.147Zm4.371,0.265h1.7l4.48-11.677h-1.7Zm8.461-4.277a4.91,4.91,0,0,0,.328,1.873,3.606,3.606,0,0,0,.929,1.335,3.879,3.879,0,0,0,1.444.8,6.755,6.755,0,0,0,3.747,0,3.879,3.879,0,0,0,1.444-.8,3.618,3.618,0,0,0,.929-1.335,4.91,4.91,0,0,0,.328-1.873v-7.135h-1.952v6.5q0,0.561-.054,1.139a2.6,2.6,0,0,1-.313,1.038,1.992,1.992,0,0,1-.78.758,3.826,3.826,0,0,1-2.951,0,1.985,1.985,0,0,1-.78-0.758,2.587,2.587,0,0,1-.312-1.038q-0.055-.578-0.055-1.139v-6.5h-1.952v7.135Zm15.674-1.764-3.95,5.776h2.233l2.825-4.262,2.779,4.262h2.373l-3.95-5.776,3.685-5.371h-2.186l-2.638,3.934-2.529-3.934h-2.326Z"/>
  <path id="千秋です_" data-name="千秋です!" class="cls-1" d="M96.611,364.3a5.962,5.962,0,0,0,3.242-3.242V334.635l-0.324-.324v-35.34q6.159,0.327,12.321.648t12.32,0.649h15.076l15.887,1.3,3.89-.324a9.908,9.908,0,0,0,4.215-4.215v-2.593A5.961,5.961,0,0,0,160,291.189l-3.566.649a46.893,46.893,0,0,1-8.754-.162q-4.218-.486-8.43-0.811H124.17l-24.641-1.3V268.494l0.324-.324V252.445a28.431,28.431,0,0,0,.648-6.16,28.3,28.3,0,0,1,.648-6.16q6.159-2.591,12.483-5.35a105.258,105.258,0,0,1,13.131-4.7,7.167,7.167,0,0,0,3.566-3.566v-2.594a5.964,5.964,0,0,0-3.242-3.242,403.238,403.238,0,0,0-38.1,13.779q-18.967,7.946-37.934,16.7l-3.242,3.729v2.594a5.962,5.962,0,0,0,3.242,3.242,87.711,87.711,0,0,0,19.777-7.7,152.122,152.122,0,0,1,19.291-8.673H91.1l-0.648,8.1V268.17l-0.324.324V288.92l-10.375-.649H62.568l-0.324.325-4.539-.325H43.277q-4.217.327-8.43,0.325a49.486,49.486,0,0,0-8.106.648,5.962,5.962,0,0,0-3.242,3.242,13.863,13.863,0,0,0,.162,2.27,4.953,4.953,0,0,0,.811,1.945l3.566,1.945A41.827,41.827,0,0,1,35.5,298q3.891,0,7.781-.324H57.705L58.029,298l4.539-.324H79.752l10.375,0.648v35.989l0.324,0.324v25.127l0.324,1.3a5.962,5.962,0,0,0,3.242,3.242h2.594Zm157.246,4.053a5.031,5.031,0,0,0,1.946-.811q6.808-15.562,14.1-31.368a191.125,191.125,0,0,0,11.51-32.017l0.973,0.324q3.24,3.568,6,7.133a30.771,30.771,0,0,1,4.377,7.781q6.481,10.377,13.212,20.994a169.32,169.32,0,0,0,14.833,20.02h2.918a5.964,5.964,0,0,0,3.242-3.242q-9.728-15.885-19.534-32.5a268.051,268.051,0,0,0-21.48-31.206q4.536-16.209,8.592-32.665t7.133-32.989v-2.918a4.846,4.846,0,0,0-1.378-1.946,5.805,5.805,0,0,0-2.027-1.3,14.065,14.065,0,0,0-2.269.162,5.033,5.033,0,0,0-1.945.81,595.361,595.361,0,0,1-18.805,71.49A602.087,602.087,0,0,1,247.7,363l1.621,4.215,2.27,1.3A14.2,14.2,0,0,0,253.857,368.354Zm-29.828-.487a5.955,5.955,0,0,0,3.242-3.242l-0.324-8.754V309.994l-0.324-.324V293.459a57.746,57.746,0,0,1,7.619,5.35q3.728,3.081,7.3,6.322h3.242a5.955,5.955,0,0,0,3.242-3.242V299.3A64.392,64.392,0,0,0,237,289.406a35.716,35.716,0,0,1-10.051-10.861v-4.539l22.371,1.3,2.918-.324a5.959,5.959,0,0,0,3.243-3.243,14.082,14.082,0,0,0-.163-2.269,5.044,5.044,0,0,0-.81-1.946,38.193,38.193,0,0,0-13.293-2.269q-7.136,0-13.942-.648a34.026,34.026,0,0,1,.163-7.458q0.486-3.563.81-7.294V236.883l14.266-2.918,2.918-3.242v-2.594a5.964,5.964,0,0,0-3.242-3.242,139.306,139.306,0,0,0-21.48,4.377,215.876,215.876,0,0,1-21.8,5.025,9.913,9.913,0,0,0-4.214,4.215v2.918a5.955,5.955,0,0,0,3.242,3.242,62.28,62.28,0,0,1,10.05-2.432,66.653,66.653,0,0,0,10.213-2.431h0.649a80.872,80.872,0,0,1-.324,12.563,118.021,118.021,0,0,0-.649,12.564l-4.7-.324-24.316.324a5.961,5.961,0,0,0-3.243,3.242v2.918a5.961,5.961,0,0,0,3.243,3.242l11.671-.324,16.86,0.324v6.484l-0.973.325a115.625,115.625,0,0,1-14.428,18.318A87.565,87.565,0,0,0,188.2,318.1v2.593a5.961,5.961,0,0,0,3.242,3.243h2.918q5.187-6.483,10.537-13.293t11.51-13.293h0.649l0.324,12.644v45.877l0.81,8.754a5.961,5.961,0,0,0,3.243,3.242h2.593Zm43.121-76.678a5.953,5.953,0,0,0,3.243-3.242q-0.327-8.1-1.3-16.049t-1.946-15.724a8.1,8.1,0,0,0-1.459-2.108,12.118,12.118,0,0,0-2.107-1.621H260.99a7.648,7.648,0,0,0-1.945,1.459,5.086,5.086,0,0,0-1.3,1.946q0.972,8.107,1.945,16.048t1.621,16.049a5.953,5.953,0,0,0,3.243,3.242h2.593Zm47.174-.162a4.953,4.953,0,0,0,1.946-.81q2.268-7.782,4.863-15.725t5.187-15.724v-2.594a5.964,5.964,0,0,0-3.242-3.242h-2.107a3.734,3.734,0,0,0-2.108.648,89.032,89.032,0,0,0-5.836,14.914q-2.271,7.782-4.215,15.563v3.89a5.953,5.953,0,0,0,3.243,3.242A13.865,13.865,0,0,0,314.324,291.027Zm139.252,71.328a5.955,5.955,0,0,0,3.242-3.242v-2.431a2.943,2.943,0,0,0-.972-2.108A69.334,69.334,0,0,1,444.5,348.9a101.207,101.207,0,0,1-10.7-7.619,63.83,63.83,0,0,1-10.7-12.644,34.921,34.921,0,0,1-5.188-14.752,79.918,79.918,0,0,1,4.053-25.451,88.931,88.931,0,0,1,11.51-22.858,80.583,80.583,0,0,1,21.56-12.563,67.643,67.643,0,0,1,24.641-4.458,5.961,5.961,0,0,0,3.242-3.243,14.207,14.207,0,0,0-.162-2.269,5.027,5.027,0,0,0-.811-1.945,5.724,5.724,0,0,0-3.08-1.621,17.513,17.513,0,0,1-3.4-.973q-28.694,3.245-57.549,6t-57.549,7.619a4.834,4.834,0,0,0-1.945,1.378,5.787,5.787,0,0,0-1.3,2.026v2.918a5.961,5.961,0,0,0,3.242,3.243q17.508-2.919,34.935-5.188t34.934-4.377h4.539v0.811l-7.457,5.511a71.558,71.558,0,0,0-13.13,23.182,114.962,114.962,0,0,0-5.674,26.1,48.854,48.854,0,0,0,3.242,19.7A46.453,46.453,0,0,0,423.1,343.875a93.182,93.182,0,0,0,12.968,10.861,69.827,69.827,0,0,0,14.266,7.619h3.242ZM468.328,296.7a5.964,5.964,0,0,0,3.242-3.242,93.828,93.828,0,0,0-4.133-12.645q-2.516-6.158-5.107-12.32a5.964,5.964,0,0,0-3.242-3.242,14.2,14.2,0,0,0-2.27.162,5.027,5.027,0,0,0-1.945.811l-1.945,3.566a72.926,72.926,0,0,0,4.215,11.834,116.245,116.245,0,0,1,4.539,11.51l3.89,3.566h2.756Zm16.86-9.078a5.964,5.964,0,0,0,3.242-3.242A45.559,45.559,0,0,0,486,274.006a45.324,45.324,0,0,1-2.432-10.375,5.955,5.955,0,0,0-3.242-3.242,14.065,14.065,0,0,0-2.269.162,5.044,5.044,0,0,0-1.946.81l-1.945,3.567q0.972,5.19,2.432,10.213t2.756,9.888l3.242,2.594h2.594Zm111.044,74.732a169.094,169.094,0,0,0,3.891-21.641q1.3-11.265,2.594-22.29l-0.649-13.293q0-3.241.162-6.322a36.254,36.254,0,0,1,.811-6v-20.75l-0.648-10.375v-1.622l1.945-.324,13.941,0.649,22.209-.973,6.809,0.324h2.594a5.964,5.964,0,0,0,3.242-3.242v-2.432a3.5,3.5,0,0,0-.973-2.269l-3.89-1.945q-5.19,0-10.457.162t-10.456.81l-16.211-.648-7.132.324h-2.27l-0.324-8.754V227.805l-0.649-2.27,0.325-.973v-2.593a5.955,5.955,0,0,0-3.242-3.242H595.26a8.481,8.481,0,0,0-3.891,3.89l0.649,5.188v13.941l0.324,0.324v8.754H564.459a114.318,114.318,0,0,1-17.427,1.3,138.216,138.216,0,0,0-17.751,1.135,5.964,5.964,0,0,0-3.242,3.242v2.432a2.939,2.939,0,0,0,.973,2.107l3.566,1.945a107.312,107.312,0,0,1,16.941-1.3,106.989,106.989,0,0,0,16.94-1.3H592.99l0.649,11.672v6.808a17.676,17.676,0,0,0-5.836-3.4,20.515,20.515,0,0,0-6.809-1.135,21.7,21.7,0,0,0-11.834,1.945,45.93,45.93,0,0,0-9.889,6.485,25.314,25.314,0,0,0-5.025,6.97,38.349,38.349,0,0,0-2.756,7.944,36.213,36.213,0,0,0,1.135,11.51,25.331,25.331,0,0,0,5.35,9.888,41.772,41.772,0,0,0,8.105,5.35,35.9,35.9,0,0,0,9.078,3.08,12.931,12.931,0,0,0,9.078-1.945,72.545,72.545,0,0,1,7.782-4.539h0.648q-0.65,9.08-1.783,18.237t-2.756,17.913V359.6a2.944,2.944,0,0,0,.973,2.107l3.566,1.945ZM578.076,318.1a19.5,19.5,0,0,1-6.646-1.784q-3.082-1.458-6-3.08a18.387,18.387,0,0,1-3.08-5.025,20.791,20.791,0,0,1-1.459-5.674,13.119,13.119,0,0,1,.81-6.16,32.646,32.646,0,0,1,2.756-5.512,24.975,24.975,0,0,1,5.512-4.215,54.4,54.4,0,0,1,6.16-2.918,21.624,21.624,0,0,1,7.619.649,16.169,16.169,0,0,1,6.322,3.566,38.289,38.289,0,0,1,1.621,4.539,32.749,32.749,0,0,1,.973,4.864,21.661,21.661,0,0,1-1.3,7.457q-1.3,3.567-2.594,6.808a14.687,14.687,0,0,1-3.566,2.108,11.061,11.061,0,0,0-3.566,2.431ZM717.49,354.25a7.164,7.164,0,0,0,3.567-3.566l-0.325-6.161a7.838,7.838,0,0,0-4.539-4.539h-2.755a3.109,3.109,0,0,0-2.27.973,9.5,9.5,0,0,0-2.432,2.756,10.458,10.458,0,0,0-1.134,3.4l0.324,3.567,4.215,3.89Zm-3.08-28.045a5.775,5.775,0,0,0,2.027-1.3,4.83,4.83,0,0,0,1.377-1.945V301.24l0.649-5.836v-33.07l0.973-18.643v-5.836a5.961,5.961,0,0,0-3.243-3.242,15.419,15.419,0,0,0-2.431.162,5.031,5.031,0,0,0-1.946.811,31.367,31.367,0,0,0-2.593,12.888q0,7.052-.325,13.86V295.4l-0.648,5.188v21.074l0.324,1.3a5.964,5.964,0,0,0,3.242,3.242h2.594Z"/>
</svg>
